<?xml version="1.0" encoding="UTF-8" standalone="no"?>
<!-- Generator: Adobe Illustrator 15.1.0, SVG Export Plug-In . SVG Version: 6.00 Build 0)  -->

<svg
   xmlns:dc="http://purl.org/dc/elements/1.1/"
   xmlns:cc="http://creativecommons.org/ns#"
   xmlns:rdf="http://www.w3.org/1999/02/22-rdf-syntax-ns#"
   xmlns:svg="http://www.w3.org/2000/svg"
   xmlns="http://www.w3.org/2000/svg"
   xmlns:sodipodi="http://sodipodi.sourceforge.net/DTD/sodipodi-0.dtd"
   xmlns:inkscape="http://www.inkscape.org/namespaces/inkscape"
   version="1.1"
   x="0px"
   y="0px"
   width="1280"
   height="720"
   viewBox="0 0 1280 720"
   enable-background="new 0 0 1024 768"
   xml:space="preserve"
   id="svg3599"
   inkscape:version="0.48.4 r9939"
   sodipodi:docname="rhok1280-720.svg"><metadata
   id="metadata4173"><rdf:RDF><cc:Work
       rdf:about=""><dc:format>image/svg+xml</dc:format><dc:type
         rdf:resource="http://purl.org/dc/dcmitype/StillImage" /><dc:title></dc:title></cc:Work></rdf:RDF></metadata><defs
   id="defs4171">
	
	
	
	
	
	
	
	
	
	
	
	
	
	
	
	
	
	
	
	
	
	
	
	
	
	
	
	
	
	
	
	
	
	
	
	
	
	
	
	
	
	
	
	
	
	
	
	
	
	
	
	
	
	
	
	
	
	
	
	
	
	
	
	
	
	
	
	
	
	
	
	
	
	
	
	
	
	
	
	
	
	
	
	
	
		
	

	
	
	
	
	
	
	
	
	
	
	
	
	
	
	
	
	
	
	
	
	
	
	
	
	
	
	
	
	
	
	
	
	
	
	
	
	
	
	
	
	
	
	
	
	
	
	
	
	
	
	
	
	
	
	
	
	
	
	
	
	

	
	
	
	
	
	
	
</defs><sodipodi:namedview
   pagecolor="#ffffff"
   bordercolor="#666666"
   borderopacity="1"
   objecttolerance="10"
   gridtolerance="10"
   guidetolerance="10"
   inkscape:pageopacity="0"
   inkscape:pageshadow="2"
   inkscape:window-width="1600"
   inkscape:window-height="841"
   id="namedview4169"
   showgrid="false"
   inkscape:zoom="0.59570063"
   inkscape:cx="614.91048"
   inkscape:cy="217.9557"
   inkscape:window-x="0"
   inkscape:window-y="27"
   inkscape:window-maximized="1"
   inkscape:current-layer="svg3599"
   showguides="true"
   inkscape:guide-bbox="true" />
<g
   id="Layer_1"
   transform="matrix(1.253864,0,0,0.93825659,0,-0.51931994)">
	<rect
   width="1024"
   height="769"
   id="rect3602"
   x="0"
   y="0" />
</g>
<rect
   style="opacity:0.46000001;fill:#2c87c5"
   id="rect3605"
   height="60.3629"
   width="228.05705"
   y="600.12531"
   x="525.9715" /><line
   id="line3607"
   y2="669.16998"
   x2="640"
   y1="599.82996"
   x1="640" /><line
   id="line3609"
   y2="661.70264"
   x2="640"
   y1="599.82996"
   x1="640" /><line
   id="line3611"
   y2="661.70264"
   x2="640"
   y1="599.82996"
   x1="640" /><line
   id="line3613"
   y2="661.70264"
   x2="640"
   y1="604.09705"
   x1="640" /><line
   id="line3615"
   y2="662.76941"
   x2="640"
   y1="603.03027"
   x1="640" /><line
   id="line3617"
   y2="664.90295"
   x2="640"
   y1="603.03027"
   x1="640" />
<line
   style="opacity:0.2;fill:none;stroke:#777777;stroke-width:0.96930164"
   id="line3620"
   y2="717.34979"
   x2="24.48341"
   y1="0.81191295"
   x1="24.48341" /><line
   style="opacity:0.2;fill:none;stroke:#777777;stroke-width:0.96768808"
   id="line3622"
   y2="718.28314"
   x2="46.493706"
   y1="1.3208736"
   x1="46.493706" /><line
   style="opacity:0.2;fill:none;stroke:#777777;stroke-width:0.96769094"
   id="line3624"
   y2="717.35144"
   x2="70.504936"
   y1="1.3208765"
   x1="70.504936" /><line
   style="opacity:0.2;fill:none;stroke:#777777;stroke-width:0.96768808"
   id="line3626"
   y2="717.35144"
   x2="91.514763"
   y1="0.38914832"
   x1="91.514763" /><line
   style="opacity:0.2;fill:none;stroke:#777777;stroke-width:1.03383338"
   id="line3628"
   y2="423.57773"
   x2="114.50697"
   y1="0.29541004"
   x1="114.50697" /><line
   style="opacity:0.2;fill:none;stroke:#777777;stroke-width:0.93882638"
   id="line3630"
   y2="717.41711"
   x2="115.51912"
   y1="531.54431"
   x1="115.51912" /><line
   style="opacity:0.2;fill:none;stroke:#777777;stroke-width:0.93882638"
   id="line3632"
   y2="718.29797"
   x2="136.53059"
   y1="566.78082"
   x1="136.53059" /><line
   style="opacity:0.2;fill:none;stroke:#777777;stroke-width:1.03090978"
   id="line3634"
   y2="366.46582"
   x2="160.50337"
   y1="1.9056233"
   x1="160.50337" /><line
   style="opacity:0.2;fill:none;stroke:#777777;stroke-width:1.02839637"
   id="line3636"
   y2="351.66086"
   x2="180.5018"
   y1="0.51054573"
   x1="180.5018" /><line
   style="opacity:0.2;fill:none;stroke:#777777;stroke-width:1.02839637"
   id="line3638"
   y2="297.71909"
   x2="204.49994"
   y1="1.5682274"
   x1="204.49994" /><line
   style="opacity:0.2;fill:none;stroke:#777777"
   id="line3640"
   y2="714.66772"
   x2="225.5"
   y1="626.66772"
   x1="225.5" /><line
   style="opacity:0.2;fill:none;stroke:#777777;stroke-width:1.03967583"
   id="line3642"
   y2="249.05438"
   x2="249.49641"
   y1="2.5840819"
   x1="249.49641" /><line
   style="opacity:0.2;fill:none;stroke:#777777;stroke-width:1.03592968"
   id="line3644"
   y2="245.88512"
   x2="270.49478"
   y1="1.1877823"
   x1="270.49478" /><line
   style="opacity:0.2;fill:none;stroke:#777777;stroke-width:1.04024661"
   id="line3646"
   y2="247.99593"
   x2="293.49298"
   y1="0.17273128"
   x1="293.49298" /><line
   style="opacity:0.2;fill:none;stroke:#777777;stroke-width:1.02839637"
   id="line3648"
   y2="392.91043"
   x2="136.50525"
   y1="1.5682274"
   x1="136.50525" /><line
   style="opacity:0.2;fill:none;stroke:#777777"
   id="line3650"
   y2="714.66772"
   x2="160.5"
   y1="582.66772"
   x1="160.5" /><line
   style="opacity:0.2;fill:none;stroke:#777777"
   id="line3652"
   y2="714.66772"
   x2="180.5"
   y1="626.66772"
   x1="180.5" /><line
   style="opacity:0.2;fill:none;stroke:#777777"
   id="line3654"
   y2="714.66772"
   x2="204.5"
   y1="626.66772"
   x1="204.5" /><line
   style="opacity:0.2;fill:none;stroke:#777777;stroke-width:1.02839637"
   id="line3656"
   y2="0.51054573"
   x2="225.49829"
   y1="260.70023"
   x1="225.49829" /><line
   style="opacity:0.2;fill:none;stroke:#777777"
   id="line3658"
   y2="714.66772"
   x2="249.5"
   y1="635.66772"
   x1="249.5" /><line
   style="opacity:0.2;fill:none;stroke:#777777"
   id="line3660"
   y2="714.66772"
   x2="270.5"
   y1="634.66772"
   x1="270.5" /><line
   style="opacity:0.2;fill:none;stroke:#777777"
   id="line3662"
   y2="714.66772"
   x2="293.5"
   y1="635.66772"
   x1="293.5" /><line
   style="opacity:0.2;fill:none;stroke:#777777;stroke-width:1.05089831"
   id="line3664"
   y2="244.81232"
   x2="315.49127"
   y1="0.72365171"
   x1="315.49127" /><line
   style="opacity:0.2;fill:none;stroke:#777777"
   id="line3666"
   y2="714.66772"
   x2="338.5"
   y1="629.66772"
   x1="338.5" /><line
   style="opacity:0.2;fill:none;stroke:#777777"
   id="line3668"
   y2="714.66772"
   x2="315.5"
   y1="602.66772"
   x1="315.5" /><line
   style="opacity:0.2;fill:none;stroke:#777777"
   id="line3670"
   y2="715.66772"
   x2="379.5"
   y1="627.66772"
   x1="379.5" /><line
   style="opacity:0.2;fill:none;stroke:#777777"
   id="line3672"
   y2="714.66772"
   x2="355.5"
   y1="639.66772"
   x1="355.5" /><line
   style="opacity:0.2;fill:none;stroke:#777777;stroke-width:1.08948338"
   id="line3674"
   y2="137.94626"
   x2="338.48947"
   y1="0.24652305"
   x1="338.48947" /><line
   style="opacity:0.2;fill:none;stroke:#777777;stroke-width:1.03307283"
   id="line3676"
   y2="143.27196"
   x2="359.36047"
   y1="0.76869905"
   x1="358.88623" /><line
   style="opacity:0.2;fill:none;stroke:#777777;stroke-width:1.03494799"
   id="line3678"
   y2="129.19749"
   x2="382.73874"
   y1="1.5367626"
   x1="382.32031" /><line
   style="opacity:0.2;fill:none;stroke:#777777"
   id="line3680"
   y2="714.66772"
   x2="404.5"
   y1="634.66772"
   x1="404.5" /><line
   style="opacity:0.2;fill:none;stroke:#777777"
   id="line3682"
   y2="715.66772"
   x2="427.5"
   y1="634.66772"
   x1="427.5" /><line
   style="opacity:0.2;fill:none;stroke:#777777"
   id="line3684"
   y2="604.16772"
   x2="198"
   y1="604.16772"
   x1="2" /><line
   style="opacity:0.2;fill:none;stroke:#777777"
   id="line3686"
   y2="581.16772"
   x2="183"
   y1="581.16772"
   x1="0" /><line
   style="opacity:0.2;fill:none;stroke:#777777"
   id="line3688"
   y2="559.16772"
   x2="184"
   y1="559.16772"
   x1="0" /><line
   style="opacity:0.2;fill:none;stroke:#777777"
   id="line3690"
   y2="671.16772"
   x2="107"
   y1="671.16772"
   x1="0" /><line
   style="opacity:0.2;fill:none;stroke:#777777"
   id="line3692"
   y2="648.16772"
   x2="182"
   y1="648.16772"
   x1="1" /><line
   id="line3694"
   y2="683.66772"
   x2="626"
   y1="683.66772"
   x1="0" /><line
   style="opacity:0.2;fill:none;stroke:#777777"
   id="line3696"
   y2="626.16772"
   x2="184"
   y1="626.16772"
   x1="1" /><line
   style="opacity:0.2;fill:none;stroke:#777777"
   id="line3698"
   y2="536.16772"
   x2="182"
   y1="536.16772"
   x1="2" /><line
   style="opacity:0.2;fill:none;stroke:#777777"
   id="line3700"
   y2="514.16772"
   x2="182"
   y1="514.16772"
   x1="0" /><line
   style="opacity:0.2;fill:none;stroke:#777777"
   id="line3702"
   y2="491.16769"
   x2="182"
   y1="491.16769"
   x1="1" /><line
   style="opacity:0.2;fill:none;stroke:#777777"
   id="line3704"
   y2="469.16769"
   x2="207"
   y1="469.16769"
   x1="2" /><line
   style="opacity:0.2;fill:none;stroke:#777777"
   id="line3706"
   y2="446.16769"
   x2="223"
   y1="446.16769"
   x1="3" /><line
   style="opacity:0.2;fill:none;stroke:#777777"
   id="line3708"
   y2="426.16769"
   x2="235"
   y1="426.16769"
   x1="1" /><line
   style="opacity:0.2;fill:none;stroke:#777777"
   id="line3710"
   y2="402.16769"
   x2="240"
   y1="402.16769"
   x1="4" /><line
   style="opacity:0.2;fill:none;stroke:#777777"
   id="line3712"
   y2="377.16769"
   x2="240"
   y1="377.16769"
   x1="2" /><line
   style="opacity:0.2;fill:none;stroke:#777777"
   id="line3714"
   y2="356.16769"
   x2="430"
   y1="356.16769"
   x1="2" /><line
   style="opacity:0.2;fill:none;stroke:#777777"
   id="line3716"
   y2="335.16769"
   x2="426"
   y1="335.16769"
   x1="1" /><line
   style="opacity:0.2;fill:none;stroke:#777777"
   id="line3718"
   y2="312.16769"
   x2="481"
   y1="312.16769"
   x1="2" /><line
   style="opacity:0.2;fill:none;stroke:#777777"
   id="line3720"
   y2="290.16769"
   x2="445"
   y1="290.16769"
   x1="2" /><line
   style="opacity:0.2;fill:none;stroke:#777777"
   id="line3722"
   y2="267.16769"
   x2="428"
   y1="267.16769"
   x1="2" /><line
   style="opacity:0.2;fill:none;stroke:#777777"
   id="line3724"
   y2="240.16769"
   x2="374"
   y1="240.16769"
   x1="2" /><line
   style="opacity:0.2;fill:none;stroke:#777777"
   id="line3726"
   y2="217.16769"
   x2="426"
   y1="217.16769"
   x1="1" /><line
   style="opacity:0.2;fill:none;stroke:#777777"
   id="line3728"
   y2="195.16769"
   x2="400"
   y1="195.16769"
   x1="0" /><line
   style="opacity:0.2;fill:none;stroke:#777777"
   id="line3730"
   y2="171.16769"
   x2="444"
   y1="171.16769"
   x1="0" /><line
   style="opacity:0.2;fill:none;stroke:#777777"
   id="line3732"
   y2="151.16769"
   x2="507"
   y1="151.16769"
   x1="3" /><line
   style="opacity:0.2;fill:none;stroke:#777777"
   id="line3734"
   y2="127.16769"
   x2="502"
   y1="127.16769"
   x1="2" /><line
   style="opacity:0.2;fill:none;stroke:#777777"
   id="line3736"
   y2="105.16769"
   x2="639"
   y1="105.16769"
   x1="3" /><line
   style="opacity:0.2;fill:none;stroke:#777777"
   id="line3738"
   y2="81.167694"
   x2="729"
   y1="81.167694"
   x1="5" /><g
   style="opacity:0.91000001"
   id="g3740"
   transform="translate(251.6476,34.020629)">
		<g
   id="g3742">
			<path
   style="fill:#f5f5f5"
   inkscape:connector-curvature="0"
   id="path3744"
   d="m 774.398,76.037 h -3.359 l 1.477,-8.322 h -4.14 l -1.478,8.322 h -3.357 l 3.182,-18.095 h 3.357 l -1.262,7.249 h 4.142 l 1.263,-7.249 h 3.359 l -3.184,18.095 z" />
			<path
   style="fill:#f5f5f5"
   inkscape:connector-curvature="0"
   id="path3746"
   d="m 787.027,76.037 h -2.388 l -0.243,-1.729 c 0,0.05 -0.262,0.378 -0.784,0.985 -0.259,0.235 -0.593,0.458 -1.001,0.668 -0.417,0.203 -0.898,0.312 -1.444,0.329 -0.351,0 -0.716,-0.069 -1.098,-0.203 -0.385,-0.119 -0.741,-0.34 -1.074,-0.669 -0.334,-0.345 -0.593,-0.812 -0.78,-1.401 -0.221,-0.581 -0.331,-1.339 -0.331,-2.272 -0.015,-2.173 0.435,-4.293 1.356,-6.365 0.465,-0.976 1.084,-1.767 1.859,-2.373 0.767,-0.606 1.707,-0.919 2.822,-0.935 0.866,0.016 1.51,0.171 1.934,0.466 0.383,0.329 0.574,0.501 0.574,0.517 l 0.929,-0.72 h 1.994 l -2.325,13.702 z m -1.433,-10.848 c -0.014,-0.016 -0.141,-0.093 -0.377,-0.228 -0.245,-0.126 -0.577,-0.199 -0.992,-0.214 -0.571,0.016 -1.048,0.277 -1.432,0.783 -0.398,0.514 -0.729,1.168 -0.98,1.96 -0.465,1.679 -0.689,3.184 -0.674,4.516 0.02,1.138 0.315,1.699 0.895,1.682 0.336,0 0.662,-0.156 0.98,-0.468 0.302,-0.277 0.58,-0.59 0.83,-0.936 0.514,-0.844 0.781,-1.291 0.796,-1.34 l 0.954,-5.755 z" />
			<path
   style="fill:#f5f5f5"
   inkscape:connector-curvature="0"
   id="path3748"
   d="m 799.457,65.658 c -0.016,-0.016 -0.241,-0.173 -0.674,-0.468 -0.456,-0.279 -0.958,-0.428 -1.506,-0.443 -0.568,0.016 -1.045,0.269 -1.43,0.76 -0.398,0.482 -0.728,1.086 -0.979,1.811 -0.483,1.555 -0.717,2.858 -0.698,3.914 0,0.887 0.122,1.5 0.366,1.836 0.222,0.347 0.481,0.512 0.782,0.494 0.319,0 0.653,-0.051 1.005,-0.151 0.333,-0.084 0.652,-0.177 0.953,-0.279 0.637,-0.262 0.974,-0.4 1.006,-0.418 l -0.5,2.934 c -0.02,0.018 -0.319,0.121 -0.908,0.315 -0.602,0.2 -1.358,0.309 -2.271,0.326 -0.35,0 -0.736,-0.069 -1.16,-0.203 -0.431,-0.119 -0.838,-0.358 -1.223,-0.72 -0.383,-0.362 -0.699,-0.864 -0.953,-1.504 -0.27,-0.64 -0.403,-1.462 -0.403,-2.464 0,-1.356 0.175,-2.683 0.528,-3.981 0.347,-1.254 0.855,-2.35 1.525,-3.286 0.67,-0.821 1.355,-1.377 2.055,-1.67 0.718,-0.276 1.4,-0.406 2.052,-0.389 0.855,0.016 1.548,0.171 2.079,0.465 0.521,0.292 0.791,0.448 0.806,0.465 l -0.452,2.656 z" />
			<path
   style="fill:#f5f5f5"
   inkscape:connector-curvature="0"
   id="path3750"
   d="m 803.15,76.037 h -3.359 l 3.283,-18.612 h 3.359 l -3.283,18.612 z m 4.784,-7.551 2.07,7.55 -3.648,0.252 -1.779,-8.005 3.383,-5.945 h 3.939 l -3.965,6.148 z" />
			<path
   style="fill:#f5f5f5"
   inkscape:connector-curvature="0"
   id="path3752"
   d="m 814.76,76.037 h -3.253 l 2.337,-13.7 h 3.255 l -2.339,13.7 z m 3.061,-17.583 c -0.019,0.537 -0.194,0.985 -0.528,1.344 -0.334,0.396 -0.775,0.592 -1.322,0.592 -0.539,0 -0.975,-0.197 -1.309,-0.592 -0.369,-0.359 -0.553,-0.808 -0.553,-1.344 0,-0.546 0.184,-1.006 0.553,-1.384 0.334,-0.344 0.77,-0.522 1.309,-0.541 0.547,0.018 0.988,0.197 1.322,0.541 0.334,0.378 0.51,0.838 0.528,1.384 z" />
			<path
   style="fill:#f5f5f5"
   inkscape:connector-curvature="0"
   id="path3754"
   d="m 828.492,76.037 h -3.361 l 1.656,-9.493 c 0.083,-0.481 0.107,-0.87 0.074,-1.165 -0.051,-0.286 -0.24,-0.43 -0.566,-0.43 -0.381,0.018 -0.768,0.161 -1.164,0.43 -0.396,0.295 -0.747,0.633 -1.061,1.012 -0.725,0.92 -1.094,1.414 -1.111,1.48 l -1.451,8.165 h -3.357 l 2.41,-13.703 h 2.628 l 0.188,2.449 c 0,-0.049 0.395,-0.504 1.188,-1.362 0.393,-0.346 0.86,-0.658 1.4,-0.935 0.512,-0.276 1.123,-0.415 1.832,-0.415 1.084,0.016 1.824,0.376 2.223,1.08 0.378,0.72 0.466,1.627 0.264,2.722 l -1.792,10.165 z" />
			<path
   style="fill:#f5f5f5"
   inkscape:connector-curvature="0"
   id="path3756"
   d="m 841.42,74.754 c -0.154,0.992 -0.338,1.896 -0.549,2.71 -0.236,0.809 -0.57,1.494 -1.006,2.058 -0.43,0.572 -0.992,0.987 -1.674,1.25 -0.701,0.294 -1.643,0.441 -2.813,0.441 -0.45,-0.017 -0.915,-0.08 -1.394,-0.188 -0.492,-0.084 -0.943,-0.184 -1.357,-0.301 -0.922,-0.295 -1.398,-0.45 -1.431,-0.466 l 0.477,-2.728 c 0.032,0.017 0.491,0.175 1.38,0.473 0.848,0.29 1.693,0.442 2.533,0.459 0.945,-0.017 1.626,-0.328 2.043,-0.932 0.406,-0.611 0.676,-1.463 0.805,-2.555 l 0.172,-1.187 c 0,0.052 -0.279,0.38 -0.843,0.985 -0.269,0.236 -0.597,0.459 -0.979,0.669 -0.4,0.227 -0.852,0.34 -1.359,0.34 -0.35,0 -0.732,-0.063 -1.148,-0.189 -0.4,-0.117 -0.783,-0.341 -1.15,-0.668 -0.35,-0.329 -0.637,-0.805 -0.857,-1.428 -0.245,-0.597 -0.367,-1.396 -0.367,-2.399 -0.023,-2.087 0.422,-4.086 1.347,-5.997 0.488,-0.901 1.116,-1.632 1.885,-2.197 0.751,-0.539 1.676,-0.817 2.776,-0.833 0.905,0.034 1.568,0.223 1.982,0.566 0.417,0.363 0.623,0.551 0.623,0.569 l 0.883,-0.873 h 2.127 l -2.106,12.421 z m -1.652,-9.437 c -0.014,-0.016 -0.183,-0.118 -0.5,-0.304 -0.318,-0.16 -0.707,-0.25 -1.162,-0.266 -0.547,0.016 -1.006,0.249 -1.371,0.696 -0.398,0.474 -0.709,1.056 -0.931,1.749 -0.45,1.469 -0.665,2.715 -0.649,3.736 0,0.945 0.107,1.566 0.32,1.863 0.203,0.295 0.473,0.434 0.806,0.418 0.333,0 0.663,-0.148 0.979,-0.444 0.303,-0.245 0.567,-0.532 0.795,-0.861 0.522,-0.81 0.791,-1.24 0.811,-1.292 l 0.902,-5.295 z" />
			<path
   style="fill:#f5f5f5"
   inkscape:connector-curvature="0"
   id="path3758"
   d="m 861.734,60.365 c -0.016,-0.016 -0.274,-0.13 -0.781,-0.34 -0.48,-0.186 -0.951,-0.287 -1.415,-0.305 -0.933,-0.017 -1.484,0.456 -1.653,1.416 l -0.242,1.2 h 2.59 l -0.795,2.347 h -2.211 l -1.932,11.099 c -0.328,1.996 -1.027,3.363 -2.095,4.104 -1.067,0.724 -2.739,1.077 -5.013,1.061 l 0.416,-2.499 c 1.086,-0.068 1.875,-0.325 2.376,-0.771 0.495,-0.431 0.814,-1.105 0.958,-2.023 l 1.932,-10.972 h -1.805 l 0.416,-2.347 h 1.805 l 0.205,-1.084 c 0.311,-1.586 0.875,-2.67 1.689,-3.249 0.793,-0.571 1.797,-0.848 3.018,-0.832 0.92,0.018 1.65,0.139 2.197,0.365 0.537,0.233 0.809,0.359 0.809,0.375 l -0.469,2.455 z" />
			<path
   style="fill:#f5f5f5"
   inkscape:connector-curvature="0"
   id="path3760"
   d="m 870.486,66.72 c 0,1.534 -0.186,2.993 -0.553,4.375 -0.396,1.399 -0.98,2.555 -1.75,3.464 -1.084,1.153 -2.572,1.73 -4.465,1.73 -1.231,0.025 -2.246,-0.346 -3.047,-1.112 -0.838,-0.758 -1.27,-2.051 -1.282,-3.879 0,-1.381 0.222,-2.78 0.671,-4.196 0.427,-1.406 1.062,-2.568 1.909,-3.487 1.005,-1.045 2.397,-1.561 4.185,-1.543 1.166,0 2.169,0.344 3.009,1.033 0.415,0.361 0.744,0.835 0.979,1.424 0.227,0.611 0.344,1.343 0.344,2.191 z m -3.181,0 c 0,-0.835 -0.098,-1.434 -0.293,-1.796 -0.236,-0.336 -0.63,-0.506 -1.176,-0.506 -0.621,0.018 -1.131,0.283 -1.527,0.797 -0.425,0.515 -0.76,1.164 -1.006,1.948 -0.457,1.669 -0.676,3.056 -0.658,4.16 0,0.919 0.135,1.585 0.403,1.999 0.236,0.396 0.569,0.594 1.003,0.594 0.653,0 1.188,-0.293 1.602,-0.884 0.418,-0.564 0.75,-1.243 1.004,-2.037 0.431,-1.763 0.648,-3.187 0.648,-4.275 z" />
			<path
   style="fill:#f5f5f5"
   inkscape:connector-curvature="0"
   id="path3762"
   d="m 880.803,65.518 c -0.078,-0.093 -0.543,-0.215 -1.402,-0.367 -0.361,0 -0.709,0.139 -1.035,0.416 -0.328,0.27 -0.613,0.578 -0.859,0.923 -0.53,0.867 -0.797,1.326 -0.797,1.377 l -1.449,8.17 H 871.9 l 2.41,-13.701 h 2.451 l 0.076,2.45 c -0.018,-0.05 0.219,-0.505 0.705,-1.364 0.22,-0.345 0.535,-0.656 0.949,-0.935 0.395,-0.276 0.887,-0.416 1.479,-0.416 0.916,0.101 1.384,0.231 1.397,0.391 l -0.564,3.056 z" />
			<path
   style="fill:#f5f5f5"
   inkscape:connector-curvature="0"
   id="path3764"
   d="m 898.215,76.037 h -3.361 l 1.478,-8.322 h -4.14 l -1.478,8.322 h -3.359 l 3.183,-18.095 h 3.357 l -1.264,7.249 h 4.143 l 1.262,-7.249 h 3.361 l -3.182,18.095 z" />
			<path
   style="fill:#f5f5f5"
   inkscape:connector-curvature="0"
   id="path3766"
   d="m 911.174,76.037 h -2.387 l -0.221,-2.236 c 0,0.05 -0.295,0.46 -0.879,1.231 -0.305,0.327 -0.68,0.613 -1.125,0.854 -0.459,0.251 -1.002,0.386 -1.629,0.403 -2.373,-0.034 -3.309,-1.542 -2.813,-4.521 l 1.602,-9.431 h 3.264 l -1.619,9.442 c -0.068,0.379 -0.084,0.742 -0.051,1.088 0.033,0.379 0.227,0.577 0.578,0.595 0.408,0 0.787,-0.165 1.139,-0.494 0.35,-0.27 0.662,-0.599 0.941,-0.986 0.555,-0.893 0.842,-1.374 0.855,-1.441 l 1.408,-8.204 h 3.26 l -2.323,13.7 z" />
			<path
   style="fill:#f5f5f5"
   inkscape:connector-curvature="0"
   id="path3768"
   d="m 930.802,76.037 h -3.359 l 1.656,-9.493 c 0.084,-0.481 0.117,-0.87 0.1,-1.165 -0.016,-0.286 -0.156,-0.43 -0.418,-0.43 -0.328,0.018 -0.662,0.161 -1.01,0.43 -0.328,0.295 -0.639,0.633 -0.936,1.012 -0.596,0.92 -0.902,1.414 -0.92,1.48 l -1.451,8.165 h -3.359 l 1.656,-9.493 c 0.084,-0.481 0.115,-0.87 0.1,-1.165 -0.016,-0.286 -0.156,-0.43 -0.416,-0.43 -0.328,0.018 -0.666,0.161 -1.012,0.43 -0.32,0.295 -0.627,0.633 -0.92,1.012 -0.607,0.92 -0.92,1.414 -0.934,1.48 l -1.454,8.165 h -3.357 l 2.41,-13.703 h 2.628 l 0.191,2.449 c 0,-0.049 0.359,-0.504 1.082,-1.362 0.361,-0.346 0.783,-0.658 1.264,-0.935 0.463,-0.276 0.996,-0.415 1.604,-0.415 0.844,0 1.451,0.24 1.828,0.719 0.391,0.489 0.584,1.137 0.584,1.945 0.084,-0.102 0.229,-0.299 0.43,-0.593 0.209,-0.278 0.479,-0.573 0.807,-0.884 0.346,-0.329 0.752,-0.61 1.215,-0.846 0.443,-0.227 0.936,-0.341 1.477,-0.341 1.018,0.016 1.715,0.376 2.094,1.08 0.363,0.72 0.43,1.627 0.203,2.722 l -1.783,10.166 z" />
			<path
   style="fill:#f5f5f5"
   inkscape:connector-curvature="0"
   id="path3770"
   d="m 943.304,76.037 h -2.385 l -0.246,-1.729 c 0,0.05 -0.258,0.378 -0.783,0.985 -0.258,0.235 -0.594,0.458 -1.002,0.668 -0.416,0.203 -0.896,0.312 -1.443,0.329 -0.35,0 -0.717,-0.069 -1.098,-0.203 -0.383,-0.119 -0.74,-0.34 -1.074,-0.669 -0.332,-0.345 -0.594,-0.812 -0.781,-1.401 -0.219,-0.581 -0.33,-1.339 -0.33,-2.272 -0.018,-2.173 0.436,-4.293 1.357,-6.365 0.465,-0.976 1.084,-1.767 1.857,-2.373 0.768,-0.606 1.709,-0.919 2.826,-0.935 0.861,0.016 1.506,0.171 1.93,0.466 0.385,0.329 0.574,0.501 0.574,0.517 l 0.932,-0.72 h 1.99 l -2.324,13.702 z m -1.43,-10.848 c -0.018,-0.016 -0.145,-0.093 -0.381,-0.228 -0.246,-0.126 -0.574,-0.199 -0.99,-0.214 -0.57,0.016 -1.047,0.277 -1.432,0.783 -0.4,0.514 -0.729,1.168 -0.982,1.96 -0.463,1.679 -0.689,3.184 -0.67,4.516 0.014,1.138 0.313,1.699 0.893,1.682 0.334,0 0.66,-0.156 0.979,-0.468 0.301,-0.277 0.576,-0.59 0.832,-0.936 0.516,-0.844 0.779,-1.291 0.797,-1.34 l 0.954,-5.755 z" />
			<path
   style="fill:#f5f5f5"
   inkscape:connector-curvature="0"
   id="path3772"
   d="m 957.229,76.037 h -3.357 l 1.652,-9.493 c 0.084,-0.481 0.109,-0.87 0.074,-1.165 -0.051,-0.286 -0.238,-0.43 -0.566,-0.43 -0.377,0.018 -0.766,0.161 -1.16,0.43 -0.398,0.295 -0.75,0.633 -1.061,1.012 -0.725,0.92 -1.096,1.414 -1.111,1.48 l -1.455,8.165 h -3.357 L 949.3,62.333 h 2.627 l 0.189,2.449 c 0,-0.049 0.395,-0.504 1.186,-1.362 0.396,-0.346 0.861,-0.658 1.404,-0.935 0.51,-0.276 1.121,-0.415 1.828,-0.415 1.086,0.016 1.826,0.376 2.223,1.08 0.381,0.72 0.469,1.627 0.264,2.722 l -1.792,10.165 z" />
			<path
   style="fill:#f5f5f5"
   inkscape:connector-curvature="0"
   id="path3774"
   d="m 963.661,76.037 h -3.25 l 2.336,-13.7 h 3.252 l -2.338,13.7 z m 3.063,-17.583 c -0.018,0.537 -0.191,0.985 -0.527,1.344 -0.336,0.396 -0.775,0.592 -1.322,0.592 -0.539,0 -0.977,-0.197 -1.309,-0.592 -0.367,-0.359 -0.553,-0.808 -0.553,-1.344 0,-0.546 0.186,-1.006 0.553,-1.384 0.332,-0.344 0.77,-0.522 1.309,-0.541 0.547,0.018 0.986,0.197 1.322,0.541 0.335,0.378 0.509,0.838 0.527,1.384 z" />
			<path
   style="fill:#f5f5f5"
   inkscape:connector-curvature="0"
   id="path3776"
   d="m 974.993,64.684 h -2.209 l -1.363,7.805 c -0.176,0.767 0.082,1.15 0.771,1.15 0.143,0 0.324,-0.039 0.541,-0.115 0.229,-0.034 0.447,-0.075 0.658,-0.126 0.48,-0.118 0.736,-0.185 0.77,-0.201 l -0.469,2.612 c -0.014,0.017 -0.297,0.092 -0.844,0.228 -0.541,0.151 -1.188,0.235 -1.943,0.252 -2.275,0 -3.221,-1.229 -2.844,-3.688 l 1.365,-7.918 h -1.805 l 0.416,-2.347 h 1.807 l 0.932,-3.106 3.184,-1.036 -0.758,4.142 h 2.588 l -0.797,2.348 z" />
			<path
   style="fill:#f5f5f5"
   inkscape:connector-curvature="0"
   id="path3778"
   d="m 981.634,75.945 c -0.781,1.923 -1.801,3.238 -3.053,3.945 -0.641,0.377 -1.396,0.646 -2.271,0.806 -0.904,0.167 -1.936,0.252 -3.107,0.252 l 0.467,-2.575 c 1.051,-0.085 1.963,-0.283 2.74,-0.594 0.775,-0.312 1.41,-0.872 1.906,-1.68 l -2.273,-13.762 h 3.928 l 0.316,10.267 3.182,-10.267 h 3.826 l -5.661,13.608 z" />
		</g>
	</g>
<g
   id="g3781"
   transform="translate(0,-0.428871)">
		<g
   id="g3783">
			<path
   style="fill:#d6d6d6"
   inkscape:connector-curvature="0"
   id="path3785"
   d="m 36.111,113.647 -0.964,-3.929 c -0.227,-0.965 -0.478,-1.723 -0.752,-2.271 -0.293,-0.557 -0.572,-0.948 -0.836,-1.174 l -1.319,0.104 v 7.27 H 27.695 V 94.914 h 5.7 c 1.048,0 2.029,0.051 2.943,0.156 0.888,0.139 1.676,0.396 2.366,0.772 0.699,0.374 1.241,0.918 1.626,1.634 0.368,0.715 0.551,1.661 0.551,2.836 0,1.5 -0.276,2.624 -0.828,3.373 -0.578,0.768 -1.365,1.33 -2.363,1.688 0.789,0.539 1.468,1.737 2.038,3.594 l 1.432,4.681 h -5.049 z m 0.227,-13.296 c 0,-0.819 -0.222,-1.399 -0.667,-1.739 -0.482,-0.305 -1.323,-0.458 -2.524,-0.458 H 32.24 v 5.334 c 0.68,-0.069 1.281,-0.16 1.801,-0.274 0.51,-0.105 0.941,-0.266 1.291,-0.483 0.34,-0.21 0.601,-0.51 0.78,-0.902 0.15,-0.374 0.226,-0.868 0.226,-1.478 z" />
			<path
   style="fill:#d6d6d6"
   inkscape:connector-curvature="0"
   id="path3787"
   d="m 50.92,113.646 -0.486,-1.26 c 0,0.036 -0.348,0.285 -1.043,0.749 -0.348,0.202 -0.771,0.373 -1.269,0.512 -0.517,0.156 -1.124,0.245 -1.818,0.263 -0.429,0 -0.868,-0.061 -1.314,-0.184 -0.473,-0.122 -0.915,-0.344 -1.326,-0.667 -0.412,-0.339 -0.745,-0.814 -0.999,-1.424 -0.263,-0.584 -0.394,-1.352 -0.394,-2.302 0,-0.976 0.195,-1.769 0.585,-2.379 0.354,-0.61 0.807,-1.072 1.361,-1.386 0.581,-0.34 1.184,-0.575 1.81,-0.705 0.635,-0.087 1.221,-0.131 1.756,-0.131 h 2.573 v -0.825 c 0,-0.557 -0.151,-0.924 -0.453,-1.097 -0.301,-0.167 -0.791,-0.249 -1.468,-0.249 -1.024,0.017 -2.044,0.144 -3.06,0.378 -1.07,0.228 -1.624,0.354 -1.661,0.38 v -3.293 c 0.019,-0.017 0.58,-0.162 1.685,-0.432 1.051,-0.252 2.286,-0.387 3.705,-0.404 1.652,-0.019 3.023,0.269 4.109,0.862 0.53,0.34 0.953,0.82 1.267,1.439 0.278,0.644 0.417,1.458 0.417,2.442 v 9.714 H 50.92 z m -0.565,-6.718 -0.885,0.025 c -0.953,0 -1.633,0.152 -2.042,0.457 -0.428,0.304 -0.632,0.864 -0.614,1.681 0,0.678 0.132,1.139 0.399,1.382 0.276,0.251 0.628,0.37 1.057,0.351 0.542,-0.017 1.018,-0.125 1.427,-0.326 0.419,-0.156 0.637,-0.243 0.657,-0.26 v -3.31 z" />
			<path
   style="fill:#d6d6d6"
   inkscape:connector-curvature="0"
   id="path3789"
   d="m 67.42,113.647 v -9.701 c 0,-0.471 -0.09,-0.793 -0.268,-0.968 -0.189,-0.157 -0.547,-0.235 -1.075,-0.235 -0.726,0.017 -1.4,0.156 -2.022,0.418 -0.66,0.289 -1,0.44 -1.019,0.458 v 10.028 H 58.494 V 99.462 h 4.008 l 0.611,1.438 c 0.018,-0.034 0.485,-0.319 1.399,-0.851 0.444,-0.234 0.96,-0.431 1.548,-0.587 0.563,-0.184 1.165,-0.273 1.808,-0.273 1.208,-0.019 2.189,0.279 2.942,0.889 0.753,0.636 1.139,1.751 1.156,3.345 v 10.225 H 67.42 z" />
			<path
   style="fill:#d6d6d6"
   inkscape:connector-curvature="0"
   id="path3791"
   d="m 84.225,113.646 -0.513,-1.077 c 0,0.036 -0.322,0.25 -0.965,0.643 -0.336,0.166 -0.739,0.32 -1.21,0.459 -0.462,0.14 -0.997,0.219 -1.604,0.237 -0.581,0 -1.192,-0.08 -1.836,-0.236 -0.652,-0.175 -1.278,-0.515 -1.876,-1.02 -0.571,-0.497 -1.042,-1.237 -1.414,-2.222 -0.39,-0.976 -0.585,-2.27 -0.585,-3.883 0,-1.639 0.241,-2.959 0.722,-3.961 0.463,-0.977 1.021,-1.709 1.674,-2.197 0.671,-0.496 1.352,-0.836 2.042,-1.02 0.662,-0.123 1.225,-0.182 1.688,-0.182 1.006,0.018 1.778,0.178 2.313,0.482 0.508,0.34 0.763,0.519 0.763,0.537 v -5.83 h 4.542 v 19.268 h -3.741 z m -0.801,-10.682 c 0,-0.017 -0.184,-0.126 -0.55,-0.326 -0.349,-0.156 -0.791,-0.245 -1.326,-0.262 -0.405,0 -0.772,0.026 -1.101,0.079 -0.349,0.07 -0.649,0.248 -0.903,0.536 -0.226,0.269 -0.409,0.678 -0.55,1.227 -0.057,0.288 -0.104,0.618 -0.141,0.993 -0.057,0.391 -0.085,0.836 -0.085,1.331 0,0.931 0.067,1.672 0.198,2.221 0.122,0.591 0.287,1.031 0.494,1.318 0.443,0.496 1.04,0.727 1.793,0.692 0.583,-0.017 1.086,-0.143 1.509,-0.379 0.423,-0.208 0.645,-0.321 0.664,-0.339 v -7.091 z" />
			<path
   style="fill:#d6d6d6"
   inkscape:connector-curvature="0"
   id="path3793"
   d="m 104.433,106.541 c -0.018,1.597 -0.232,2.875 -0.645,3.834 -0.413,0.985 -0.97,1.736 -1.672,2.251 -0.684,0.506 -1.422,0.846 -2.212,1.02 -0.395,0.071 -0.798,0.131 -1.21,0.183 -0.414,0.053 -0.808,0.08 -1.185,0.08 -0.772,0 -1.554,-0.097 -2.344,-0.289 -0.79,-0.182 -1.536,-0.522 -2.238,-1.02 -0.685,-0.515 -1.233,-1.264 -1.646,-2.248 -0.447,-0.985 -0.671,-2.253 -0.671,-3.805 0,-1.552 0.215,-2.815 0.646,-3.792 0.413,-0.967 0.961,-1.708 1.646,-2.222 0.675,-0.541 1.421,-0.906 2.238,-1.098 0.789,-0.164 1.58,-0.247 2.37,-0.247 0.412,0 0.816,0.007 1.211,0.026 0.413,0.034 0.816,0.108 1.211,0.221 0.79,0.174 1.527,0.518 2.212,1.031 0.703,0.506 1.26,1.247 1.672,2.221 0.411,0.986 0.617,2.27 0.617,3.854 z m -4.543,0 c 0,-0.979 -0.044,-1.768 -0.132,-2.364 -0.106,-0.585 -0.27,-1.024 -0.49,-1.313 -0.433,-0.507 -1.019,-0.741 -1.76,-0.697 -0.344,0 -0.653,0.044 -0.927,0.131 -0.291,0.122 -0.542,0.338 -0.754,0.644 -0.45,0.569 -0.675,1.768 -0.675,3.598 0,0.92 0.07,1.655 0.212,2.207 0.07,0.29 0.163,0.543 0.278,0.762 0.07,0.228 0.159,0.425 0.264,0.592 0.468,0.568 1.001,0.836 1.602,0.802 0.309,0 0.604,-0.052 0.887,-0.158 0.291,-0.114 0.547,-0.311 0.768,-0.591 0.212,-0.289 0.393,-0.731 0.543,-1.327 0.123,-0.552 0.184,-1.313 0.184,-2.286 z" />
			<path
   style="fill:#d6d6d6"
   inkscape:connector-curvature="0"
   id="path3795"
   d="m 123.556,113.647 v -9.779 c 0,-0.793 -0.437,-1.169 -1.309,-1.125 -0.588,0.017 -1.134,0.121 -1.637,0.313 -0.541,0.236 -0.821,0.362 -0.84,0.379 v 10.211 h -4.516 v -9.779 c 0,-0.793 -0.436,-1.169 -1.309,-1.125 -0.607,0.017 -1.163,0.121 -1.665,0.313 -0.531,0.236 -0.806,0.362 -0.825,0.379 v 10.211 H 106.91 V 99.462 h 4.01 l 0.611,1.307 c 0,-0.035 0.39,-0.3 1.169,-0.798 0.372,-0.218 0.829,-0.404 1.373,-0.562 0.517,-0.148 1.11,-0.221 1.781,-0.221 1.739,-0.019 2.936,0.619 3.588,1.908 0.553,-0.506 1.21,-0.945 1.971,-1.32 0.78,-0.375 1.69,-0.57 2.732,-0.588 1.147,0 2.098,0.304 2.851,0.914 0.719,0.646 1.086,1.751 1.104,3.32 v 10.225 h -4.544 z" />
			<path
   style="fill:#d6d6d6"
   inkscape:connector-curvature="0"
   id="path3797"
   d="m 148.977,113.647 v -8.304 h -4.643 v 8.304 h -4.542 V 94.914 h 4.542 v 7.217 h 4.643 v -7.217 h 4.543 v 18.733 h -4.543 z" />
			<path
   style="fill:#d6d6d6"
   inkscape:connector-curvature="0"
   id="path3799"
   d="m 164.77,113.646 -0.486,-1.26 c 0,0.036 -0.348,0.285 -1.043,0.749 -0.347,0.202 -0.771,0.373 -1.27,0.512 -0.516,0.156 -1.123,0.245 -1.819,0.263 -0.429,0 -0.867,-0.061 -1.313,-0.184 -0.473,-0.122 -0.916,-0.344 -1.327,-0.667 -0.412,-0.339 -0.744,-0.814 -0.999,-1.424 -0.262,-0.584 -0.394,-1.352 -0.394,-2.302 0,-0.976 0.195,-1.769 0.585,-2.379 0.353,-0.61 0.807,-1.072 1.361,-1.386 0.581,-0.34 1.184,-0.575 1.812,-0.705 0.634,-0.087 1.219,-0.131 1.755,-0.131 h 2.573 v -0.825 c 0,-0.557 -0.151,-0.924 -0.453,-1.097 -0.302,-0.167 -0.791,-0.249 -1.467,-0.249 -1.025,0.017 -2.045,0.144 -3.06,0.378 -1.071,0.228 -1.624,0.354 -1.662,0.38 v -3.293 c 0.02,-0.017 0.581,-0.162 1.686,-0.432 1.051,-0.252 2.286,-0.387 3.705,-0.404 1.652,-0.019 3.022,0.269 4.109,0.862 0.531,0.34 0.952,0.82 1.267,1.439 0.278,0.644 0.417,1.458 0.417,2.442 v 9.714 h -3.977 z m -0.565,-6.718 -0.886,0.025 c -0.952,0 -1.632,0.152 -2.041,0.457 -0.428,0.304 -0.633,0.864 -0.614,1.681 0,0.678 0.133,1.139 0.399,1.382 0.276,0.251 0.628,0.37 1.057,0.351 0.542,-0.017 1.018,-0.125 1.427,-0.326 0.418,-0.156 0.638,-0.243 0.657,-0.26 v -3.31 z" />
			<path
   style="fill:#d6d6d6"
   inkscape:connector-curvature="0"
   id="path3801"
   d="m 181.881,113.242 c -0.018,0.017 -0.397,0.126 -1.133,0.327 -0.722,0.209 -1.611,0.321 -2.664,0.34 -0.684,0 -1.393,-0.072 -2.129,-0.209 -0.771,-0.158 -1.49,-0.471 -2.155,-0.943 -0.666,-0.497 -1.205,-1.229 -1.617,-2.195 -0.428,-0.975 -0.643,-2.288 -0.643,-3.936 0,-1.637 0.25,-2.959 0.75,-3.961 0.465,-0.994 1.056,-1.743 1.775,-2.248 0.72,-0.498 1.465,-0.833 2.238,-1.007 0.771,-0.149 1.472,-0.222 2.104,-0.222 1.026,0.018 1.864,0.125 2.513,0.326 0.623,0.227 0.943,0.348 0.96,0.367 v 3.214 c -0.036,-0.017 -0.405,-0.122 -1.107,-0.314 -0.703,-0.165 -1.349,-0.257 -1.938,-0.274 -0.343,0 -0.676,0.036 -1.001,0.105 -0.325,0.096 -0.62,0.283 -0.882,0.562 -0.256,0.287 -0.458,0.71 -0.607,1.268 -0.176,0.549 -0.264,1.278 -0.264,2.184 0,0.811 0.069,1.465 0.211,1.962 0.114,0.515 0.276,0.914 0.487,1.203 0.431,0.496 1.04,0.736 1.832,0.719 0.72,-0.017 1.432,-0.122 2.135,-0.314 0.721,-0.165 1.098,-0.257 1.133,-0.273 v 3.319 z" />
			<path
   style="fill:#d6d6d6"
   inkscape:connector-curvature="0"
   id="path3803"
   d="M 183.883,113.647 V 94.379 h 4.542 v 19.268 h -4.542 z m 8.246,0.262 -3.534,-8.159 2.941,-6.287 h 5.129 l -3.507,6.105 4.048,8.079 -5.077,0.262 z" />
			<path
   style="fill:#d6d6d6"
   inkscape:connector-curvature="0"
   id="path3805"
   d="m 208.487,109.333 c 0,0.985 -0.174,1.781 -0.524,2.392 -0.347,0.62 -0.813,1.091 -1.394,1.412 -0.591,0.306 -1.235,0.511 -1.933,0.614 -0.733,0.105 -1.476,0.158 -2.226,0.158 -1.11,-0.019 -2.106,-0.131 -2.992,-0.34 -0.912,-0.201 -1.377,-0.31 -1.395,-0.327 v -3.425 c 0.036,0.018 0.564,0.135 1.582,0.354 0.972,0.227 1.813,0.348 2.522,0.366 0.573,0.019 1.035,-0.035 1.391,-0.157 0.355,-0.104 0.532,-0.388 0.532,-0.851 0,-0.392 -0.193,-0.679 -0.58,-0.862 -0.386,-0.175 -0.851,-0.335 -1.396,-0.484 l -1.075,-0.365 c -0.359,-0.131 -0.726,-0.302 -1.103,-0.51 -0.375,-0.184 -0.733,-0.437 -1.074,-0.758 -0.324,-0.323 -0.582,-0.715 -0.774,-1.177 -0.236,-0.462 -0.354,-1.025 -0.354,-1.688 0,-0.905 0.184,-1.655 0.551,-2.248 0.349,-0.583 0.796,-1.036 1.342,-1.359 0.573,-0.339 1.208,-0.576 1.905,-0.707 0.699,-0.123 1.402,-0.182 2.109,-0.182 1.234,0.018 2.237,0.125 3.006,0.326 0.771,0.227 1.164,0.348 1.182,0.367 v 3.293 c -0.035,-0.017 -0.478,-0.131 -1.328,-0.34 -0.805,-0.2 -1.619,-0.31 -2.443,-0.327 -1.316,-0.017 -1.955,0.306 -1.918,0.968 0,0.34 0.212,0.587 0.637,0.746 0.386,0.183 0.84,0.344 1.364,0.483 l 1.181,0.405 c 0.394,0.105 0.778,0.258 1.155,0.458 0.376,0.209 0.717,0.475 1.023,0.797 0.306,0.323 0.56,0.724 0.761,1.203 0.179,0.48 0.266,1.069 0.266,1.765 z" />
			<path
   style="fill:#d6d6d6"
   inkscape:connector-curvature="0"
   id="path3807"
   d="m 231.579,106.541 c -0.019,1.597 -0.232,2.875 -0.645,3.834 -0.412,0.985 -0.97,1.736 -1.671,2.251 -0.686,0.506 -1.423,0.846 -2.212,1.02 -0.396,0.071 -0.798,0.131 -1.212,0.183 -0.413,0.053 -0.808,0.08 -1.185,0.08 -0.773,0 -1.554,-0.097 -2.344,-0.289 -0.79,-0.182 -1.536,-0.522 -2.237,-1.02 -0.686,-0.515 -1.234,-1.264 -1.646,-2.248 -0.449,-0.985 -0.671,-2.253 -0.671,-3.805 0,-1.552 0.215,-2.815 0.645,-3.792 0.413,-0.967 0.961,-1.708 1.646,-2.222 0.676,-0.541 1.422,-0.906 2.238,-1.098 0.791,-0.164 1.58,-0.247 2.37,-0.247 0.412,0 0.816,0.007 1.21,0.026 0.413,0.034 0.816,0.108 1.211,0.221 0.79,0.174 1.528,0.518 2.212,1.031 0.702,0.506 1.259,1.247 1.672,2.221 0.413,0.986 0.619,2.27 0.619,3.854 z m -4.542,0 c 0,-0.979 -0.045,-1.768 -0.133,-2.364 -0.105,-0.585 -0.269,-1.024 -0.49,-1.313 -0.432,-0.507 -1.019,-0.741 -1.76,-0.697 -0.344,0 -0.653,0.044 -0.928,0.131 -0.29,0.122 -0.541,0.338 -0.753,0.644 -0.451,0.569 -0.676,1.768 -0.676,3.598 0,0.92 0.071,1.655 0.212,2.207 0.071,0.29 0.164,0.543 0.278,0.762 0.071,0.228 0.159,0.425 0.265,0.592 0.467,0.568 1.002,0.836 1.602,0.802 0.308,0 0.605,-0.052 0.887,-0.158 0.291,-0.114 0.547,-0.311 0.768,-0.591 0.212,-0.289 0.392,-0.731 0.543,-1.327 0.122,-0.552 0.185,-1.313 0.185,-2.286 z" />
			<path
   style="fill:#d6d6d6"
   inkscape:connector-curvature="0"
   id="path3809"
   d="m 243.548,97.658 c -0.035,0 -0.387,-0.07 -1.055,-0.209 -0.65,-0.123 -1.297,-0.183 -1.938,-0.183 -0.512,0 -0.839,0.122 -0.98,0.367 -0.142,0.251 -0.211,0.61 -0.211,1.072 v 0.758 h 3.103 l -0.436,2.824 h -2.667 v 11.362 h -4.543 v -11.362 h -2.307 v -2.824 h 2.307 v -1.02 c 0.018,-1.663 0.486,-2.832 1.406,-3.503 0.893,-0.663 2.024,-0.985 3.391,-0.967 1.166,0.017 2.107,0.122 2.826,0.313 0.719,0.218 1.086,0.335 1.104,0.354 v 3.018 z" />
			<path
   style="fill:#d6d6d6"
   inkscape:connector-curvature="0"
   id="path3811"
   d="M 252.199,113.647 V 94.914 h 4.543 v 18.733 h -4.543 z m 8.997,0.262 -4.285,-10.303 3.996,-8.692 h 5.024 l -4.51,8.509 4.773,10.225 -4.998,0.261 z" />
			<path
   style="fill:#d6d6d6"
   inkscape:connector-curvature="0"
   id="path3813"
   d="m 272.546,95.259 c 0,0.679 -0.224,1.257 -0.67,1.735 -0.474,0.521 -1.078,0.781 -1.814,0.781 -0.709,0 -1.301,-0.261 -1.773,-0.781 -0.482,-0.478 -0.724,-1.056 -0.724,-1.735 0,-0.712 0.242,-1.306 0.724,-1.786 0.472,-0.476 1.064,-0.723 1.773,-0.742 0.737,0.019 1.34,0.266 1.814,0.742 0.446,0.48 0.67,1.074 0.67,1.786 z m -4.764,18.388 V 99.463 h 4.542 v 14.184 h -4.542 z" />
			<path
   style="fill:#d6d6d6"
   inkscape:connector-curvature="0"
   id="path3815"
   d="m 284.629,113.647 v -9.701 c 0,-0.471 -0.09,-0.793 -0.27,-0.968 -0.188,-0.157 -0.546,-0.235 -1.074,-0.235 -0.726,0.017 -1.4,0.156 -2.022,0.418 -0.661,0.289 -1,0.44 -1.019,0.458 v 10.028 h -4.543 V 99.462 h 4.008 l 0.611,1.438 c 0.019,-0.034 0.485,-0.319 1.4,-0.851 0.444,-0.234 0.959,-0.431 1.548,-0.587 0.561,-0.184 1.164,-0.273 1.806,-0.273 1.208,-0.019 2.19,0.279 2.943,0.889 0.753,0.636 1.138,1.751 1.156,3.345 v 10.225 h -4.544 z" />
			<path
   style="fill:#d6d6d6"
   inkscape:connector-curvature="0"
   id="path3817"
   d="m 301.433,113.646 -0.512,-1.077 c 0,0.036 -0.321,0.25 -0.965,0.643 -0.336,0.166 -0.739,0.32 -1.211,0.459 -0.461,0.14 -0.997,0.219 -1.604,0.237 -0.579,0 -1.191,-0.08 -1.835,-0.236 -0.653,-0.175 -1.277,-0.515 -1.876,-1.02 -0.571,-0.497 -1.042,-1.237 -1.414,-2.222 -0.39,-0.976 -0.584,-2.27 -0.584,-3.883 0,-1.639 0.24,-2.959 0.721,-3.961 0.462,-0.977 1.021,-1.709 1.674,-2.197 0.671,-0.496 1.352,-0.836 2.042,-1.02 0.663,-0.123 1.225,-0.182 1.688,-0.182 1.006,0.018 1.777,0.178 2.313,0.482 0.509,0.34 0.763,0.519 0.763,0.537 v -5.83 h 4.542 v 19.268 h -3.742 z m -0.801,-10.682 c 0,-0.017 -0.184,-0.126 -0.55,-0.326 -0.349,-0.156 -0.792,-0.245 -1.327,-0.262 -0.405,0 -0.772,0.026 -1.101,0.079 -0.349,0.07 -0.65,0.248 -0.904,0.536 -0.225,0.269 -0.408,0.678 -0.551,1.227 -0.056,0.288 -0.103,0.618 -0.141,0.993 -0.056,0.391 -0.084,0.836 -0.084,1.331 0,0.931 0.065,1.672 0.197,2.221 0.123,0.591 0.287,1.031 0.494,1.318 0.443,0.496 1.039,0.727 1.792,0.692 0.583,-0.017 1.086,-0.143 1.509,-0.379 0.423,-0.208 0.645,-0.321 0.664,-0.339 v -7.091 z" />
			<path
   style="fill:#d6d6d6"
   inkscape:connector-curvature="0"
   id="path3819"
   d="m 317.739,113.647 v -9.701 c 0,-0.471 -0.09,-0.793 -0.269,-0.968 -0.189,-0.157 -0.547,-0.235 -1.076,-0.235 -0.726,0.017 -1.4,0.156 -2.021,0.418 -0.661,0.289 -1,0.44 -1.019,0.458 v 10.028 h -4.542 V 99.462 h 4.007 l 0.612,1.438 c 0.019,-0.034 0.485,-0.319 1.399,-0.851 0.444,-0.234 0.96,-0.431 1.548,-0.587 0.562,-0.184 1.165,-0.273 1.807,-0.273 1.208,-0.019 2.189,0.279 2.942,0.889 0.753,0.636 1.139,1.751 1.156,3.345 v 10.225 h -4.544 z" />
			<path
   style="fill:#d6d6d6"
   inkscape:connector-curvature="0"
   id="path3821"
   d="m 337.452,107.947 h -8.121 c 0.053,1.089 0.337,1.795 0.857,2.119 0.509,0.332 1.168,0.489 1.977,0.471 0.896,-0.018 1.858,-0.131 2.887,-0.34 1.045,-0.2 1.585,-0.308 1.621,-0.327 v 3.32 c -0.018,0.017 -0.496,0.135 -1.434,0.353 -0.93,0.228 -2.045,0.349 -3.343,0.367 -0.378,0 -0.764,-0.027 -1.158,-0.08 -0.395,-0.034 -0.799,-0.086 -1.21,-0.156 -0.808,-0.14 -1.57,-0.462 -2.291,-0.967 -0.719,-0.498 -1.285,-1.239 -1.698,-2.222 -0.465,-0.977 -0.698,-2.288 -0.698,-3.936 0,-1.499 0.207,-2.737 0.619,-3.712 0.377,-0.968 0.882,-1.709 1.514,-2.222 0.623,-0.559 1.32,-0.933 2.093,-1.125 0.754,-0.2 1.5,-0.3 2.238,-0.3 0.718,0 1.447,0.1 2.184,0.3 0.737,0.192 1.413,0.559 2.028,1.099 0.604,0.515 1.088,1.257 1.446,2.226 0.36,0.977 0.533,2.224 0.514,3.742 l -0.025,1.39 z m -4.339,-2.536 c 0,-1.186 -0.128,-2.064 -0.383,-2.635 -0.254,-0.563 -0.734,-0.844 -1.437,-0.844 -0.791,0 -1.309,0.289 -1.555,0.87 -0.272,0.589 -0.417,1.458 -0.435,2.609 h 3.81 z" />
			<path
   style="fill:#d6d6d6"
   inkscape:connector-curvature="0"
   id="path3823"
   d="m 349.747,109.333 c 0,0.985 -0.175,1.781 -0.523,2.392 -0.349,0.62 -0.814,1.091 -1.396,1.412 -0.589,0.306 -1.234,0.511 -1.931,0.614 -0.734,0.105 -1.476,0.158 -2.227,0.158 -1.109,-0.019 -2.106,-0.131 -2.991,-0.34 -0.913,-0.201 -1.378,-0.31 -1.396,-0.327 v -3.425 c 0.036,0.018 0.563,0.135 1.582,0.354 0.973,0.227 1.813,0.348 2.522,0.366 0.573,0.019 1.036,-0.035 1.392,-0.157 0.354,-0.104 0.531,-0.388 0.531,-0.851 0,-0.392 -0.192,-0.679 -0.579,-0.862 -0.386,-0.175 -0.851,-0.335 -1.396,-0.484 l -1.076,-0.365 c -0.359,-0.131 -0.726,-0.302 -1.101,-0.51 -0.376,-0.184 -0.734,-0.437 -1.076,-0.758 -0.323,-0.323 -0.58,-0.715 -0.773,-1.177 -0.237,-0.462 -0.354,-1.025 -0.354,-1.688 0,-0.905 0.184,-1.655 0.549,-2.248 0.35,-0.583 0.798,-1.036 1.343,-1.359 0.573,-0.339 1.208,-0.576 1.906,-0.707 0.698,-0.123 1.401,-0.182 2.108,-0.182 1.234,0.018 2.236,0.125 3.007,0.326 0.77,0.227 1.163,0.348 1.181,0.367 v 3.293 c -0.036,-0.017 -0.478,-0.131 -1.328,-0.34 -0.805,-0.2 -1.62,-0.31 -2.444,-0.327 -1.315,-0.017 -1.955,0.306 -1.918,0.968 0,0.34 0.211,0.587 0.637,0.746 0.386,0.183 0.84,0.344 1.364,0.483 l 1.181,0.405 c 0.394,0.105 0.779,0.258 1.155,0.458 0.376,0.209 0.717,0.475 1.023,0.797 0.306,0.323 0.56,0.724 0.761,1.203 0.179,0.48 0.267,1.069 0.267,1.765 z" />
			<path
   style="fill:#d6d6d6"
   inkscape:connector-curvature="0"
   id="path3825"
   d="m 361.531,109.333 c 0,0.985 -0.174,1.781 -0.524,2.392 -0.348,0.62 -0.813,1.091 -1.396,1.412 -0.589,0.306 -1.233,0.511 -1.931,0.614 -0.733,0.105 -1.475,0.158 -2.227,0.158 -1.109,-0.019 -2.106,-0.131 -2.991,-0.34 -0.913,-0.201 -1.378,-0.31 -1.396,-0.327 v -3.425 c 0.038,0.018 0.563,0.135 1.583,0.354 0.972,0.227 1.813,0.348 2.521,0.366 0.573,0.019 1.038,-0.035 1.392,-0.157 0.354,-0.104 0.533,-0.388 0.533,-0.851 0,-0.392 -0.193,-0.679 -0.58,-0.862 -0.386,-0.175 -0.851,-0.335 -1.396,-0.484 l -1.076,-0.365 c -0.358,-0.131 -0.725,-0.302 -1.101,-0.51 -0.376,-0.184 -0.734,-0.437 -1.076,-0.758 -0.323,-0.323 -0.582,-0.715 -0.774,-1.177 -0.236,-0.462 -0.354,-1.025 -0.354,-1.688 0,-0.905 0.183,-1.655 0.55,-2.248 0.349,-0.583 0.796,-1.036 1.342,-1.359 0.573,-0.339 1.208,-0.576 1.907,-0.707 0.698,-0.123 1.4,-0.182 2.108,-0.182 1.235,0.018 2.237,0.125 3.007,0.326 0.77,0.227 1.164,0.348 1.182,0.367 v 3.293 c -0.036,-0.017 -0.479,-0.131 -1.327,-0.34 -0.806,-0.2 -1.622,-0.31 -2.443,-0.327 -1.316,-0.017 -1.956,0.306 -1.918,0.968 0,0.34 0.211,0.587 0.637,0.746 0.386,0.183 0.84,0.344 1.364,0.483 l 1.181,0.405 c 0.394,0.105 0.778,0.258 1.155,0.458 0.376,0.209 0.718,0.475 1.024,0.797 0.307,0.323 0.56,0.724 0.761,1.203 0.176,0.48 0.263,1.069 0.263,1.765 z" />
		</g>
	</g><rect
   style="opacity:0.82999998;fill:#2c87c5"
   id="rect3827"
   height="20.768999"
   width="20.768"
   y="12.259001"
   x="48.666" /><rect
   style="opacity:0.82999998;fill:#2c87c5"
   id="rect3829"
   height="20.768999"
   width="20.768"
   y="12.259001"
   x="70.917999" /><rect
   style="opacity:0.82999998;fill:#2c87c5"
   id="rect3831"
   height="20.768999"
   width="20.768999"
   y="12.259001"
   x="115.42099" /><rect
   style="opacity:0.82999998;fill:#2c87c5"
   id="rect3833"
   height="20.768999"
   width="20.768"
   y="34.511002"
   x="26.414001" /><rect
   style="opacity:0.82999998;fill:#2c87c5"
   id="rect3835"
   height="20.768999"
   width="20.768999"
   y="34.511002"
   x="115.42099" /><rect
   style="opacity:0.82999998;fill:#2c87c5"
   id="rect3837"
   height="20.768999"
   width="20.768"
   y="34.511002"
   x="137.673" /><rect
   style="opacity:0.82999998;fill:#2c87c5"
   id="rect3839"
   height="20.768999"
   width="20.768999"
   y="34.511002"
   x="159.924" /><rect
   style="opacity:0.82999998;fill:#2c87c5"
   id="rect3841"
   height="20.768999"
   width="20.768"
   y="56.763"
   x="26.414001" /><rect
   style="opacity:0.82999998;fill:#2c87c5"
   id="rect3843"
   height="20.768999"
   width="20.768999"
   y="56.763"
   x="115.42099" /><rect
   style="opacity:0.82999998;fill:#2c87c5"
   id="rect3845"
   height="20.768999"
   width="20.768999"
   y="56.763"
   x="159.924" /><rect
   style="opacity:0.82999998;fill:#2c87c5"
   id="rect3847"
   height="20.768999"
   width="20.768999"
   y="34.511002"
   x="204.427" /><rect
   style="opacity:0.82999998;fill:#2c87c5"
   id="rect3849"
   height="20.768999"
   width="20.768"
   y="12.259001"
   x="226.679" /><rect
   style="opacity:0.82999998;fill:#2c87c5"
   id="rect3851"
   height="20.768999"
   width="20.768"
   y="56.763"
   x="226.679" /><rect
   style="opacity:0.82999998;fill:#2c87c5"
   id="rect3853"
   height="20.768999"
   width="20.768"
   y="34.511002"
   x="248.931" /><rect
   style="opacity:0.82999998;fill:#2c87c5"
   id="rect3855"
   height="20.768999"
   width="20.768999"
   y="12.259001"
   x="293.43399" /><rect
   style="opacity:0.82999998;fill:#2c87c5"
   id="rect3857"
   height="20.768999"
   width="20.768999"
   y="34.511002"
   x="293.43399" /><rect
   style="opacity:0.82999998;fill:#2c87c5"
   id="rect3859"
   height="20.768999"
   width="20.768999"
   y="56.763"
   x="293.43399" /><rect
   style="opacity:0.82999998;fill:#2c87c5"
   id="rect3861"
   height="20.768999"
   width="20.768999"
   y="34.511002"
   x="315.685" /><rect
   style="opacity:0.82999998;fill:#2c87c5"
   id="rect3863"
   height="20.768999"
   width="20.768999"
   y="12.259001"
   x="337.93701" /><rect
   style="opacity:0.82999998;fill:#2c87c5"
   id="rect3865"
   height="20.768999"
   width="20.768999"
   y="56.763"
   x="337.93701" /><rect
   style="opacity:0.25;fill:#2c87c5"
   id="rect3867"
   height="20.768999"
   width="20.768"
   y="15.382999"
   x="51.007996" /><rect
   style="opacity:0.25;fill:#2c87c5"
   id="rect3869"
   height="20.768999"
   width="20.768999"
   y="15.382999"
   x="73.261002" /><rect
   style="opacity:0.25;fill:#2c87c5"
   id="rect3871"
   height="20.768999"
   width="20.768"
   y="15.382999"
   x="117.76401" /><rect
   style="opacity:0.25;fill:#2c87c5"
   id="rect3873"
   height="20.768999"
   width="20.768"
   y="37.634998"
   x="28.757" /><rect
   style="opacity:0.25;fill:#2c87c5"
   id="rect3875"
   height="20.768999"
   width="20.768"
   y="37.634998"
   x="117.76401" /><rect
   style="opacity:0.25;fill:#2c87c5"
   id="rect3877"
   height="20.768999"
   width="20.768"
   y="37.634998"
   x="140.01601" /><rect
   style="opacity:0.25;fill:#2c87c5"
   id="rect3879"
   height="20.768999"
   width="20.768999"
   y="37.634998"
   x="162.267" /><rect
   style="opacity:0.25;fill:#2c87c5"
   id="rect3881"
   height="20.768999"
   width="20.768"
   y="59.887001"
   x="28.757" /><rect
   style="opacity:0.25;fill:#2c87c5"
   id="rect3883"
   height="20.768999"
   width="20.768"
   y="59.887001"
   x="117.76401" /><rect
   style="opacity:0.25;fill:#2c87c5"
   id="rect3885"
   height="20.768999"
   width="20.768999"
   y="59.887001"
   x="162.267" /><rect
   style="opacity:0.25;fill:#2c87c5"
   id="rect3887"
   height="20.768999"
   width="20.768"
   y="37.634998"
   x="206.77" /><rect
   style="opacity:0.25;fill:#2c87c5"
   id="rect3889"
   height="20.768999"
   width="20.768"
   y="15.382999"
   x="229.022" /><rect
   style="opacity:0.25;fill:#2c87c5"
   id="rect3891"
   height="20.768999"
   width="20.768"
   y="59.887001"
   x="229.022" /><rect
   style="opacity:0.25;fill:#2c87c5"
   id="rect3893"
   height="20.768999"
   width="20.768"
   y="37.634998"
   x="251.27301" /><rect
   style="opacity:0.25;fill:#2c87c5"
   id="rect3895"
   height="20.768999"
   width="20.768999"
   y="15.382999"
   x="295.776" /><rect
   style="opacity:0.25;fill:#2c87c5"
   id="rect3897"
   height="20.768999"
   width="20.768999"
   y="37.634998"
   x="295.776" /><rect
   style="opacity:0.25;fill:#2c87c5"
   id="rect3899"
   height="20.768999"
   width="20.768999"
   y="59.887001"
   x="295.776" /><rect
   style="opacity:0.25;fill:#2c87c5"
   id="rect3901"
   height="20.768999"
   width="20.768999"
   y="37.634998"
   x="318.02802" /><rect
   style="opacity:0.25;fill:#2c87c5"
   id="rect3903"
   height="20.768999"
   width="20.768999"
   y="15.382999"
   x="340.28" /><rect
   style="opacity:0.25;fill:#2c87c5"
   id="rect3905"
   height="20.768999"
   width="20.768999"
   y="59.887001"
   x="340.28" /><g
   id="g3907"
   transform="translate(0,-8)">
		<rect
   style="opacity:0.82999998;fill:#2c87c5"
   id="rect3909"
   height="20.768999"
   width="20.768999"
   y="153.724"
   x="159.989" />
		<rect
   style="opacity:0.25;fill:#2c87c5"
   id="rect3911"
   height="20.768999"
   width="20.768"
   y="156.84801"
   x="162.332" />
	</g><g
   style="opacity:0.55"
   id="g3913"
   transform="translate(0,-8)">
		<rect
   style="opacity:0.82999998;fill:#2c87c5"
   id="rect3915"
   height="20.768"
   width="20.768"
   y="131.96899"
   x="25.999001" />
		<rect
   style="opacity:0.25;fill:#2c87c5"
   id="rect3917"
   height="20.768"
   width="20.768999"
   y="135.093"
   x="28.341" />
	</g><g
   style="opacity:0.55"
   id="g3919"
   transform="translate(0,-8)">
		<rect
   style="opacity:0.82999998;fill:#2c87c5"
   id="rect3921"
   height="20.768999"
   width="20.768"
   y="131.379"
   x="247.562" />
		<rect
   style="opacity:0.25;fill:#2c87c5"
   id="rect3923"
   height="20.768999"
   width="20.768"
   y="134.50301"
   x="249.90401" />
	</g><g
   style="opacity:0.18999999"
   id="g3925"
   transform="translate(0,-8)">
		<rect
   style="opacity:0.82999998;fill:#2c87c5"
   id="rect3927"
   height="20.768999"
   width="20.768"
   y="249.18401"
   x="1.896" />
		<rect
   style="opacity:0.25;fill:#2c87c5"
   id="rect3929"
   height="20.768999"
   width="20.768999"
   y="252.308"
   x="4.2389998" />
	</g><g
   id="g3931"
   transform="translate(251.6476,-0.828439)">
		<rect
   style="opacity:0.82999998;fill:#2c87c5"
   id="rect3933"
   height="26.593"
   width="26.591999"
   y="13.708"
   x="743.672" />
		<rect
   style="opacity:0.25;fill:#2c87c5"
   id="rect3935"
   height="26.593"
   width="26.591999"
   y="17.708"
   x="746.672" />
	</g><g
   id="g3937"
   transform="translate(0,-8)">
		<rect
   style="opacity:0.82999998;fill:#2c87c5"
   id="rect3939"
   height="17.778999"
   width="17.778"
   y="316.439"
   x="71.039001" />
		<rect
   style="opacity:0.25;fill:#2c87c5"
   id="rect3941"
   height="17.778999"
   width="17.777"
   y="319.11301"
   x="73.043999" />
	</g><g
   id="g3943"
   transform="translate(251.6476,-8.8284389)">
		<rect
   style="opacity:0.82999998;fill:#2c87c5"
   id="rect3945"
   height="18.908001"
   width="18.908001"
   y="139.77499"
   x="936.97101" />
		<rect
   style="opacity:0.25;fill:#2c87c5"
   id="rect3947"
   height="18.908001"
   width="18.907"
   y="142.619"
   x="939.104" />
	</g><g
   id="g3949"
   transform="translate(0,-8)">
		<rect
   style="opacity:0.82999998;fill:#2c87c5"
   id="rect3951"
   height="13.139"
   width="13.138"
   y="451.41699"
   x="69.724998" />
		<rect
   style="opacity:0.25;fill:#2c87c5"
   id="rect3953"
   height="13.14"
   width="13.138"
   y="453.39301"
   x="71.208" />
	</g><g
   id="g3955"
   transform="translate(0,-8)">
		<rect
   style="opacity:0.82999998;fill:#2c87c5"
   id="rect3957"
   height="11.471"
   width="11.47"
   y="539.95099"
   x="114.92" />
		<rect
   style="opacity:0.25;fill:#2c87c5"
   id="rect3959"
   height="11.473"
   width="11.471"
   y="541.67603"
   x="116.213" />
	</g><g
   id="g3961"
   transform="translate(0,-8)">
		<rect
   style="opacity:0.82999998;fill:#2c87c5"
   id="rect3963"
   height="20.768999"
   width="20.768999"
   y="177.726"
   x="68.364998" />
		<rect
   style="opacity:0.25;fill:#2c87c5"
   id="rect3965"
   height="20.768999"
   width="20.768"
   y="180.85001"
   x="70.708" />
	</g><g
   style="opacity:0.32000002"
   id="g3967"
   transform="translate(0,-8)">
		<rect
   style="opacity:0.82999998;fill:#2c87c5"
   id="rect3969"
   height="20.768999"
   width="20.768"
   y="177.40401"
   x="115.912" />
		<rect
   style="opacity:0.25;fill:#2c87c5"
   id="rect3971"
   height="20.768999"
   width="20.768"
   y="180.528"
   x="118.255" />
	</g><g
   style="opacity:0.32000002"
   id="g3973"
   transform="translate(251.6476,-0.828439)">
		<rect
   style="opacity:0.82999998;fill:#2c87c5"
   id="rect3975"
   height="26.593"
   width="26.591999"
   y="14.254"
   x="972.84003" />
		<rect
   style="opacity:0.25;fill:#2c87c5"
   id="rect3977"
   height="26.593"
   width="26.591999"
   y="18.254"
   x="975.84003" />
	</g><g
   style="opacity:0.32000002"
   id="g3979"
   transform="translate(0,-8)">
		<rect
   style="opacity:0.82999998;fill:#2c87c5"
   id="rect3981"
   height="20.768999"
   width="20.768"
   y="155.104"
   x="225.847" />
		<rect
   style="opacity:0.25;fill:#2c87c5"
   id="rect3983"
   height="20.768999"
   width="20.768"
   y="158.229"
   x="228.19" />
	</g><g
   style="opacity:0.32000002"
   id="g3985"
   transform="translate(0,-8)">
		<rect
   style="opacity:0.82999998;fill:#2c87c5"
   id="rect3987"
   height="20.768999"
   width="20.768"
   y="251.242"
   x="90.911003" />
		<rect
   style="opacity:0.25;fill:#2c87c5"
   id="rect3989"
   height="20.768999"
   width="20.768"
   y="254.366"
   x="93.253998" />
	</g><g
   style="opacity:0.32000002"
   id="g3991"
   transform="translate(0,-8)">
		<rect
   style="opacity:0.82999998;fill:#2c87c5"
   id="rect3993"
   height="20.768999"
   width="20.768"
   y="295.54199"
   x="47.75" />
		<rect
   style="opacity:0.25;fill:#2c87c5"
   id="rect3995"
   height="20.768999"
   width="20.768"
   y="298.66599"
   x="50.094002" />
	</g><g
   style="opacity:0.32000002"
   id="g3997"
   transform="translate(0,-8)">
		<rect
   style="opacity:0.82999998;fill:#2c87c5"
   id="rect3999"
   height="17.778999"
   width="17.778"
   y="361.065"
   x="47.238998" />
		<rect
   style="opacity:0.25;fill:#2c87c5"
   id="rect4001"
   height="17.778999"
   width="17.778"
   y="363.73901"
   x="49.243999" />
	</g><g
   style="opacity:0.32000002"
   id="g4003"
   transform="translate(0,-8)">
		<rect
   style="opacity:0.82999998;fill:#2c87c5"
   id="rect4005"
   height="14.767"
   width="14.767"
   y="314.06601"
   x="161.12801" />
		<rect
   style="opacity:0.25;fill:#2c87c5"
   id="rect4007"
   height="14.767"
   width="14.766"
   y="316.28699"
   x="162.79401" />
	</g><g
   style="opacity:0.32000002"
   id="g4009"
   transform="translate(0,-8)">
		<rect
   style="opacity:0.82999998;fill:#2c87c5"
   id="rect4011"
   height="14.767"
   width="14.767"
   y="360.698"
   x="2.6170001" />
		<rect
   style="opacity:0.25;fill:#2c87c5"
   id="rect4013"
   height="14.767"
   width="14.767"
   y="362.91901"
   x="4.283" />
	</g><g
   style="opacity:0.32000002"
   id="g4015"
   transform="translate(0,-8)">
		<rect
   style="opacity:0.82999998;fill:#2c87c5"
   id="rect4017"
   height="14.766"
   width="14.767"
   y="451.26199"
   x="24.056999" />
		<rect
   style="opacity:0.25;fill:#2c87c5"
   id="rect4019"
   height="14.767"
   width="14.767"
   y="453.48199"
   x="25.723" />
	</g><g
   style="opacity:0.46000001"
   id="g4021"
   transform="translate(0,-102)">
		<rect
   style="opacity:0.82999998;fill:#2c87c5"
   id="rect4023"
   height="8.9610004"
   width="8.9610004"
   y="700.33698"
   x="181.63699" />
		<rect
   style="opacity:0.25;fill:#2c87c5"
   id="rect4025"
   height="8.9619999"
   width="8.96"
   y="701.68402"
   x="182.64799" />
	</g><g
   style="opacity:0.7"
   id="g4027"
   transform="translate(0,-102)">
		<rect
   style="opacity:0.82999998;fill:#2c87c5"
   id="rect4029"
   height="11.471"
   width="11.47"
   y="681.52502"
   x="117.718" />
		<rect
   style="opacity:0.25;fill:#2c87c5"
   id="rect4031"
   height="11.473"
   width="11.471"
   y="683.25"
   x="119.011" />
	</g><g
   style="opacity:0.32000002"
   id="g4033"
   transform="translate(0,-8)">
		<rect
   style="opacity:0.82999998;fill:#2c87c5"
   id="rect4035"
   height="14.766"
   width="14.767"
   y="587.11603"
   x="49.262001" />
		<rect
   style="opacity:0.25;fill:#2c87c5"
   id="rect4037"
   height="14.767"
   width="14.767"
   y="589.33698"
   x="50.928001" />
	</g><g
   style="opacity:0.43999999"
   id="g4039"
   transform="translate(0,-102)">
		<rect
   style="opacity:0.82999998;fill:#2c87c5"
   id="rect4041"
   height="14.766"
   width="14.767"
   y="654.27197"
   x="26.014999" />
		<rect
   style="opacity:0.25;fill:#2c87c5"
   id="rect4043"
   height="14.767"
   width="14.767"
   y="656.49298"
   x="27.681" />
	</g><g
   style="opacity:0.32000002"
   id="g4045"
   transform="translate(0,-8)">
		<rect
   style="opacity:0.82999998;fill:#2c87c5"
   id="rect4047"
   height="9.2159996"
   width="9.2159996"
   y="528.03998"
   x="55.880001" />
		<rect
   style="opacity:0.25;fill:#2c87c5"
   id="rect4049"
   height="9.2159996"
   width="9.2159996"
   y="529.427"
   x="56.918999" />
	</g><g
   style="opacity:0.43999999"
   id="g4051"
   transform="translate(0,-8)">
		<rect
   style="opacity:0.82999998;fill:#2c87c5"
   id="rect4053"
   height="9.2159996"
   width="9.2159996"
   y="565.67798"
   x="80.730003" />
		<rect
   style="opacity:0.25;fill:#2c87c5"
   id="rect4055"
   height="9.2159996"
   width="9.2159996"
   y="567.06403"
   x="81.771004" />
	</g><g
   style="opacity:0.32000002"
   id="g4057"
   transform="translate(0,-8)">
		<rect
   style="opacity:0.82999998;fill:#2c87c5"
   id="rect4059"
   height="9.217"
   width="9.2159996"
   y="585.92102"
   x="138.265" />
		<rect
   style="opacity:0.25;fill:#2c87c5"
   id="rect4061"
   height="9.2159996"
   width="9.2159996"
   y="587.30798"
   x="139.30499" />
	</g><g
   style="opacity:0.32000002"
   id="g4063"
   transform="translate(251.6476,-8.8284389)">
		<rect
   style="opacity:0.82999998;fill:#2c87c5"
   id="rect4065"
   height="16.822001"
   width="16.822001"
   y="181.832"
   x="994.40997" />
		<rect
   style="opacity:0.25;fill:#2c87c5"
   id="rect4067"
   height="16.823999"
   width="16.822001"
   y="184.36099"
   x="996.30798" />
	</g><g
   style="opacity:0.32000002"
   id="g4069"
   transform="translate(0,-8)">
		<rect
   style="opacity:0.82999998;fill:#2c87c5"
   id="rect4071"
   height="11.471"
   width="11.471"
   y="227.12"
   x="137.541" />
		<rect
   style="opacity:0.25;fill:#2c87c5"
   id="rect4073"
   height="11.472"
   width="11.471"
   y="228.84599"
   x="138.83501" />
	</g><g
   style="opacity:0.32000002"
   id="g4075"
   transform="translate(0,-8)">
		<rect
   style="opacity:0.82999998;fill:#2c87c5"
   id="rect4077"
   height="11.471"
   width="11.471"
   y="564.71997"
   x="-0.37799999" />
		<rect
   style="opacity:0.25;fill:#2c87c5"
   id="rect4079"
   height="11.471"
   width="11.471"
   y="566.44598"
   x="0.91600001" />
	</g><g
   style="opacity:0.15"
   id="g4081"
   transform="translate(251.6476,-0.828439)">
		<rect
   style="opacity:0.82999998;fill:#2c87c5"
   id="rect4083"
   height="18.908001"
   width="18.908001"
   y="28.549"
   x="961.25201" />
		<rect
   style="opacity:0.25;fill:#2c87c5"
   id="rect4085"
   height="18.908001"
   width="18.907"
   y="31.393"
   x="963.38599" />
	</g><g
   style="opacity:0.15"
   id="g4087"
   transform="translate(0,-8)">
		<rect
   style="opacity:0.82999998;fill:#2c87c5"
   id="rect4089"
   height="13.139"
   width="13.138"
   y="494.52899"
   x="72.438004" />
		<rect
   style="opacity:0.25;fill:#2c87c5"
   id="rect4091"
   height="13.139"
   width="13.138"
   y="496.505"
   x="73.919998" />
	</g><g
   style="opacity:0.15"
   id="g4093"
   transform="translate(0,-8)">
		<rect
   style="opacity:0.82999998;fill:#2c87c5"
   id="rect4095"
   height="13.138"
   width="13.138"
   y="338.31699"
   x="0.484" />
		<rect
   style="opacity:0.25;fill:#2c87c5"
   id="rect4097"
   height="13.139"
   width="13.138"
   y="340.293"
   x="1.967" />
	</g><g
   style="opacity:0.15"
   id="g4099"
   transform="translate(0,-8)">
		<rect
   style="opacity:0.82999998;fill:#2c87c5"
   id="rect4101"
   height="13.139"
   width="9.6300001"
   y="405.44"
   x="1.257" />
		<rect
   style="opacity:0.25;fill:#2c87c5"
   id="rect4103"
   height="13.14"
   width="9.6300001"
   y="407.41599"
   x="2.3429999" />
	</g><g
   style="opacity:0.15"
   id="g4105"
   transform="translate(0,-8)">
		<rect
   style="opacity:0.82999998;fill:#2c87c5"
   id="rect4107"
   height="13.138"
   width="13.138"
   y="641.73297"
   x="114.021" />
		<rect
   style="opacity:0.25;fill:#2c87c5"
   id="rect4109"
   height="13.139"
   width="13.138"
   y="643.70898"
   x="115.502" />
	</g><g
   style="opacity:0.15"
   id="g4111"
   transform="translate(0,-102)">
		<rect
   style="opacity:0.82999998;fill:#2c87c5"
   id="rect4113"
   height="7.3189998"
   width="7.3179998"
   y="706.83899"
   x="137.819" />
		<rect
   style="opacity:0.25;fill:#2c87c5"
   id="rect4115"
   height="7.3189998"
   width="7.3189998"
   y="707.93903"
   x="138.645" />
	</g><g
   style="opacity:0.15"
   id="g4117"
   transform="translate(0,-102)">
		<rect
   style="opacity:0.82999998;fill:#2c87c5"
   id="rect4119"
   height="7.3189998"
   width="7.3179998"
   y="739.40399"
   x="206.007" />
		<rect
   style="opacity:0.25;fill:#2c87c5"
   id="rect4121"
   height="7.3189998"
   width="7.3189998"
   y="740.505"
   x="206.83299" />
	</g><g
   style="opacity:0.15"
   id="g4123"
   transform="translate(0,-102)">
		<rect
   style="opacity:0.82999998;fill:#2c87c5"
   id="rect4125"
   height="7.3189998"
   width="7.3179998"
   y="751.02698"
   x="250.34801" />
		<rect
   style="opacity:0.25;fill:#2c87c5"
   id="rect4127"
   height="7.3189998"
   width="7.3189998"
   y="752.12799"
   x="251.173" />
	</g><g
   style="opacity:0.15"
   id="g4129"
   transform="translate(0,-8)">
		<rect
   style="opacity:0.82999998;fill:#2c87c5"
   id="rect4131"
   height="7.3189998"
   width="7.3179998"
   y="662.992"
   x="73.198997" />
		<rect
   style="opacity:0.25;fill:#2c87c5"
   id="rect4133"
   height="7.3189998"
   width="7.3189998"
   y="664.09302"
   x="74.024002" />
	</g><g
   style="opacity:0.15"
   id="g4135"
   transform="translate(0,-102)">
		<rect
   style="opacity:0.82999998;fill:#2c87c5"
   id="rect4137"
   height="7.3189998"
   width="5.2129998"
   y="701.22498"
   x="1.4400001" />
		<rect
   style="opacity:0.25;fill:#2c87c5"
   id="rect4139"
   height="7.3189998"
   width="5.2140002"
   y="702.32501"
   x="2.0280001" />
	</g><g
   style="opacity:0.15"
   id="g4141"
   transform="translate(0,-102)">
		<rect
   style="opacity:0.82999998;fill:#2c87c5"
   id="rect4143"
   height="7.3189998"
   width="7.3179998"
   y="730.14899"
   x="47.368999" />
		<rect
   style="opacity:0.25;fill:#2c87c5"
   id="rect4145"
   height="7.3189998"
   width="7.3189998"
   y="731.25"
   x="48.194" />
	</g><g
   style="opacity:0.15"
   id="g4147"
   transform="translate(251.6476,-8.8284389)">
		<rect
   style="opacity:0.82999998;fill:#2c87c5"
   id="rect4149"
   height="14.688"
   width="14.688"
   y="77.307999"
   x="698.37" />
		<rect
   style="opacity:0.25;fill:#2c87c5"
   id="rect4151"
   height="14.689"
   width="14.688"
   y="79.516998"
   x="700.026" />
	</g><g
   style="opacity:0.32000002"
   id="g4153"
   transform="translate(0,-8)">
		<rect
   style="opacity:0.82999998;fill:#2c87c5"
   id="rect4155"
   height="20.768999"
   width="20.768"
   y="201.407"
   x="44.299999" />
		<rect
   style="opacity:0.25;fill:#2c87c5"
   id="rect4157"
   height="20.768999"
   width="20.768"
   y="204.53101"
   x="46.643002" />
	</g><rect
   style="fill:none"
   id="rect4159"
   height="31.408001"
   width="199.48801"
   y="615.98199"
   x="540.25598" /><text
   style="font-size:48px;font-style:normal;font-variant:normal;font-weight:bold;font-stretch:normal;text-align:start;line-height:125%;writing-mode:lr-tb;text-anchor:start;fill:#d6d6d6;stroke:#d6d6d6;stroke-opacity:1;font-family:PT Sans;-inkscape-font-specification:PT Sans Bold"
   id="text4161"
   font-size="39.0486"
   x="542.00879"
   y="642.25873"
   sodipodi:linespacing="125%">RHoK.org</text>
<g
   style="opacity:0.32000002"
   id="g4163"
   transform="translate(251.6476,-8.8284389)">
		<rect
   style="opacity:0.82999998;fill:#2c87c5"
   id="rect4165"
   height="22.766001"
   width="22.764"
   y="86.861"
   x="684.60602" />
		<rect
   style="opacity:0.25;fill:#2c87c5"
   id="rect4167"
   height="22.766001"
   width="22.764"
   y="90.285004"
   x="687.17401" />
	</g>
</svg>