<?xml version="1.0" encoding="UTF-8" standalone="no"?>
<!-- Generator: Adobe Illustrator 15.1.0, SVG Export Plug-In . SVG Version: 6.00 Build 0)  -->

<svg
   xmlns:dc="http://purl.org/dc/elements/1.1/"
   xmlns:cc="http://creativecommons.org/ns#"
   xmlns:rdf="http://www.w3.org/1999/02/22-rdf-syntax-ns#"
   xmlns:svg="http://www.w3.org/2000/svg"
   xmlns="http://www.w3.org/2000/svg"
   xmlns:sodipodi="http://sodipodi.sourceforge.net/DTD/sodipodi-0.dtd"
   xmlns:inkscape="http://www.inkscape.org/namespaces/inkscape"
   version="1.1"
   x="0px"
   y="0px"
   width="1024px"
   height="768px"
   viewBox="0 0 1024 768"
   enable-background="new 0 0 1024 768"
   xml:space="preserve"
   id="svg4454"
   inkscape:version="0.48.4 r9939"
   sodipodi:docname="rhok1024-768.svg"><metadata
     id="metadata5028"><rdf:RDF><cc:Work
         rdf:about=""><dc:format>image/svg+xml</dc:format><dc:type
           rdf:resource="http://purl.org/dc/dcmitype/StillImage" /></cc:Work></rdf:RDF></metadata><defs
     id="defs5026" /><sodipodi:namedview
     pagecolor="#ffffff"
     bordercolor="#666666"
     borderopacity="1"
     objecttolerance="10"
     gridtolerance="10"
     guidetolerance="10"
     inkscape:pageopacity="0"
     inkscape:pageshadow="2"
     inkscape:window-width="1600"
     inkscape:window-height="841"
     id="namedview5024"
     showgrid="false"
     inkscape:zoom="0.86178639"
     inkscape:cx="500.83488"
     inkscape:cy="385.16139"
     inkscape:window-x="0"
     inkscape:window-y="27"
     inkscape:window-maximized="1"
     inkscape:current-layer="svg4454" /><g
     id="Layer_1"><rect
       width="1024"
       height="769"
       id="rect4457" /></g><g
     id="Layer_3"><line
       opacity="0.2"
       fill="none"
       stroke="#777777"
       x1="24.5"
       y1="5"
       x2="24.5"
       y2="768"
       id="line4475" /><line
       opacity="0.2"
       fill="none"
       stroke="#777777"
       x1="46.5"
       y1="3"
       x2="46.5"
       y2="769"
       id="line4477" /><line
       opacity="0.2"
       fill="none"
       stroke="#777777"
       x1="70.5"
       y1="3"
       x2="70.5"
       y2="768"
       id="line4479" /><line
       opacity="0.2"
       fill="none"
       stroke="#777777"
       x1="91.5"
       y1="2"
       x2="91.5"
       y2="768"
       id="line4481" /><line
       opacity="0.2"
       fill="none"
       stroke="#777777"
       x1="114.5"
       y1="3"
       x2="114.5"
       y2="399"
       id="line4483" /><line
       opacity="0.2"
       fill="none"
       stroke="#777777"
       x1="115.5"
       y1="557"
       x2="115.5"
       y2="768"
       id="line4485" /><line
       opacity="0.2"
       fill="none"
       stroke="#777777"
       x1="136.5"
       y1="597"
       x2="136.5"
       y2="769"
       id="line4487" /><line
       opacity="0.2"
       fill="none"
       stroke="#777777"
       x1="160.5"
       y1="2"
       x2="160.5"
       y2="345"
       id="line4489" /><line
       opacity="0.2"
       fill="none"
       stroke="#777777"
       x1="180.5"
       y1="-1"
       x2="180.5"
       y2="331"
       id="line4491" /><line
       opacity="0.2"
       fill="none"
       stroke="#777777"
       x1="204.5"
       y1="0"
       x2="204.5"
       y2="280"
       id="line4493" /><line
       opacity="0.2"
       fill="none"
       stroke="#777777"
       x1="225.5"
       y1="680"
       x2="225.5"
       y2="768"
       id="line4495" /><line
       opacity="0.2"
       fill="none"
       stroke="#777777"
       x1="249.5"
       y1="6"
       x2="249.5"
       y2="234"
       id="line4497" /><line
       opacity="0.2"
       fill="none"
       stroke="#777777"
       x1="270.5"
       y1="3"
       x2="270.5"
       y2="231"
       id="line4499" /><line
       opacity="0.2"
       fill="none"
       stroke="#777777"
       x1="293.5"
       y1="4"
       x2="293.5"
       y2="233"
       id="line4501" /><line
       opacity="0.2"
       fill="none"
       stroke="#777777"
       x1="136.5"
       y1="0"
       x2="136.5"
       y2="370"
       id="line4503" /><line
       opacity="0.2"
       fill="none"
       stroke="#777777"
       x1="160.5"
       y1="636"
       x2="160.5"
       y2="768"
       id="line4505" /><line
       opacity="0.2"
       fill="none"
       stroke="#777777"
       x1="180.5"
       y1="680"
       x2="180.5"
       y2="768"
       id="line4507" /><line
       opacity="0.2"
       fill="none"
       stroke="#777777"
       x1="204.5"
       y1="680"
       x2="204.5"
       y2="768"
       id="line4509" /><line
       opacity="0.2"
       fill="none"
       stroke="#777777"
       x1="225.5"
       y1="245"
       x2="225.5"
       y2="-1"
       id="line4511" /><line
       opacity="0.2"
       fill="none"
       stroke="#777777"
       x1="249.5"
       y1="689"
       x2="249.5"
       y2="768"
       id="line4513" /><line
       opacity="0.2"
       fill="none"
       stroke="#777777"
       x1="270.5"
       y1="688"
       x2="270.5"
       y2="768"
       id="line4515" /><line
       opacity="0.2"
       fill="none"
       stroke="#777777"
       x1="293.5"
       y1="689"
       x2="293.5"
       y2="768"
       id="line4517" /><line
       opacity="0.2"
       fill="none"
       stroke="#777777"
       x1="315.5"
       y1="9"
       x2="315.5"
       y2="230"
       id="line4519" /><line
       opacity="0.2"
       fill="none"
       stroke="#777777"
       x1="338.5"
       y1="683"
       x2="338.5"
       y2="768"
       id="line4521" /><line
       opacity="0.2"
       fill="none"
       stroke="#777777"
       x1="315.5"
       y1="656"
       x2="315.5"
       y2="768"
       id="line4523" /><line
       opacity="0.2"
       fill="none"
       stroke="#777777"
       x1="379.5"
       y1="681"
       x2="379.5"
       y2="769"
       id="line4525" /><line
       opacity="0.2"
       fill="none"
       stroke="#777777"
       x1="355.5"
       y1="693"
       x2="355.5"
       y2="768"
       id="line4527" /><line
       opacity="0.2"
       fill="none"
       stroke="#777777"
       x1="338.5"
       y1="13"
       x2="338.5"
       y2="129"
       id="line4529" /><line
       opacity="0.2"
       fill="none"
       stroke="#777777"
       x1="358.896"
       y1="1.767"
       x2="359.375"
       y2="133.978"
       id="line4531" /><line
       opacity="0.2"
       fill="none"
       stroke="#777777"
       x1="382.331"
       y1="3.334"
       x2="382.756"
       y2="120.672"
       id="line4533" /><line
       opacity="0.2"
       fill="none"
       stroke="#777777"
       x1="404.5"
       y1="688"
       x2="404.5"
       y2="768"
       id="line4535" /><line
       opacity="0.2"
       fill="none"
       stroke="#777777"
       x1="427.5"
       y1="688"
       x2="427.5"
       y2="769"
       id="line4537" /><line
       opacity="0.2"
       fill="none"
       stroke="#777777"
       x1="2"
       y1="563.5"
       x2="198"
       y2="563.5"
       id="line4539" /><line
       opacity="0.2"
       fill="none"
       stroke="#777777"
       x1="0"
       y1="540.5"
       x2="183"
       y2="540.5"
       id="line4541" /><line
       opacity="0.2"
       fill="none"
       stroke="#777777"
       x1="0"
       y1="518.5"
       x2="184"
       y2="518.5"
       id="line4543" /><line
       opacity="0.2"
       fill="none"
       stroke="#777777"
       x1="0"
       y1="630.5"
       x2="107"
       y2="630.5"
       id="line4545" /><line
       opacity="0.2"
       fill="none"
       stroke="#777777"
       x1="1"
       y1="607.5"
       x2="182"
       y2="607.5"
       id="line4547" /><line
       x1="0"
       y1="737"
       x2="626"
       y2="737"
       id="line4549" /><line
       opacity="0.2"
       fill="none"
       stroke="#777777"
       x1="1"
       y1="585.5"
       x2="184"
       y2="585.5"
       id="line4551" /><line
       opacity="0.2"
       fill="none"
       stroke="#777777"
       x1="2"
       y1="495.5"
       x2="182"
       y2="495.5"
       id="line4553" /><line
       opacity="0.2"
       fill="none"
       stroke="#777777"
       x1="0"
       y1="473.5"
       x2="182"
       y2="473.5"
       id="line4555" /><line
       opacity="0.2"
       fill="none"
       stroke="#777777"
       x1="1"
       y1="450.5"
       x2="182"
       y2="450.5"
       id="line4557" /><line
       opacity="0.2"
       fill="none"
       stroke="#777777"
       x1="2"
       y1="428.5"
       x2="207"
       y2="428.5"
       id="line4559" /><line
       opacity="0.2"
       fill="none"
       stroke="#777777"
       x1="3"
       y1="405.5"
       x2="223"
       y2="405.5"
       id="line4561" /><line
       opacity="0.2"
       fill="none"
       stroke="#777777"
       x1="1"
       y1="385.5"
       x2="235"
       y2="385.5"
       id="line4563" /><line
       opacity="0.2"
       fill="none"
       stroke="#777777"
       x1="4"
       y1="361.5"
       x2="240"
       y2="361.5"
       id="line4565" /><line
       opacity="0.2"
       fill="none"
       stroke="#777777"
       x1="2"
       y1="336.5"
       x2="240"
       y2="336.5"
       id="line4567" /><line
       opacity="0.2"
       fill="none"
       stroke="#777777"
       x1="2"
       y1="315.5"
       x2="430"
       y2="315.5"
       id="line4569" /><line
       opacity="0.2"
       fill="none"
       stroke="#777777"
       x1="1"
       y1="294.5"
       x2="426"
       y2="294.5"
       id="line4571" /><line
       opacity="0.2"
       fill="none"
       stroke="#777777"
       x1="2"
       y1="271.5"
       x2="481"
       y2="271.5"
       id="line4573" /><line
       opacity="0.2"
       fill="none"
       stroke="#777777"
       x1="2"
       y1="249.5"
       x2="445"
       y2="249.5"
       id="line4575" /><line
       opacity="0.2"
       fill="none"
       stroke="#777777"
       x1="2"
       y1="226.5"
       x2="428"
       y2="226.5"
       id="line4577" /><line
       opacity="0.2"
       fill="none"
       stroke="#777777"
       x1="2"
       y1="199.5"
       x2="374"
       y2="199.5"
       id="line4579" /><line
       opacity="0.2"
       fill="none"
       stroke="#777777"
       x1="1"
       y1="176.5"
       x2="426"
       y2="176.5"
       id="line4581" /><line
       opacity="0.2"
       fill="none"
       stroke="#777777"
       x1="0"
       y1="154.5"
       x2="400"
       y2="154.5"
       id="line4583" /><line
       opacity="0.2"
       fill="none"
       stroke="#777777"
       x1="0"
       y1="130.5"
       x2="444"
       y2="130.5"
       id="line4585" /><line
       opacity="0.2"
       fill="none"
       stroke="#777777"
       x1="3"
       y1="110.5"
       x2="507"
       y2="110.5"
       id="line4587" /><line
       opacity="0.2"
       fill="none"
       stroke="#777777"
       x1="2"
       y1="86.5"
       x2="502"
       y2="86.5"
       id="line4589" /><line
       opacity="0.2"
       fill="none"
       stroke="#777777"
       x1="3"
       y1="64.5"
       x2="639"
       y2="64.5"
       id="line4591" /><line
       opacity="0.2"
       fill="none"
       stroke="#777777"
       x1="5"
       y1="40.5"
       x2="729"
       y2="40.5"
       id="line4593" /><g
       opacity="0.91"
       id="g4595"><g
         id="g4597"><path
           fill="#F5F5F5"
           d="M774.398,76.037h-3.359l1.477-8.322h-4.14l-1.478,8.322h-3.357l3.182-18.095h3.357l-1.262,7.249h4.142     l1.263-7.249h3.359L774.398,76.037z"
           id="path4599" /><path
           fill="#F5F5F5"
           d="M787.027,76.037h-2.388l-0.243-1.729c0,0.05-0.262,0.378-0.784,0.985     c-0.259,0.235-0.593,0.458-1.001,0.668c-0.417,0.203-0.898,0.312-1.444,0.329c-0.351,0-0.716-0.069-1.098-0.203     c-0.385-0.119-0.741-0.34-1.074-0.669c-0.334-0.345-0.593-0.812-0.78-1.401c-0.221-0.581-0.331-1.339-0.331-2.272     c-0.015-2.173,0.435-4.293,1.356-6.365c0.465-0.976,1.084-1.767,1.859-2.373c0.767-0.606,1.707-0.919,2.822-0.935     c0.866,0.016,1.51,0.171,1.934,0.466c0.383,0.329,0.574,0.501,0.574,0.517l0.929-0.72h1.994L787.027,76.037z M785.594,65.189     c-0.014-0.016-0.141-0.093-0.377-0.228c-0.245-0.126-0.577-0.199-0.992-0.214c-0.571,0.016-1.048,0.277-1.432,0.783     c-0.398,0.514-0.729,1.168-0.98,1.96c-0.465,1.679-0.689,3.184-0.674,4.516c0.02,1.138,0.315,1.699,0.895,1.682     c0.336,0,0.662-0.156,0.98-0.468c0.302-0.277,0.58-0.59,0.83-0.936c0.514-0.844,0.781-1.291,0.796-1.34L785.594,65.189z"
           id="path4601" /><path
           fill="#F5F5F5"
           d="M799.457,65.658c-0.016-0.016-0.241-0.173-0.674-0.468c-0.456-0.279-0.958-0.428-1.506-0.443     c-0.568,0.016-1.045,0.269-1.43,0.76c-0.398,0.482-0.728,1.086-0.979,1.811c-0.483,1.555-0.717,2.858-0.698,3.914     c0,0.887,0.122,1.5,0.366,1.836c0.222,0.347,0.481,0.512,0.782,0.494c0.319,0,0.653-0.051,1.005-0.151     c0.333-0.084,0.652-0.177,0.953-0.279c0.637-0.262,0.974-0.4,1.006-0.418l-0.5,2.934c-0.02,0.018-0.319,0.121-0.908,0.315     c-0.602,0.2-1.358,0.309-2.271,0.326c-0.35,0-0.736-0.069-1.16-0.203c-0.431-0.119-0.838-0.358-1.223-0.72     c-0.383-0.362-0.699-0.864-0.953-1.504c-0.27-0.64-0.403-1.462-0.403-2.464c0-1.356,0.175-2.683,0.528-3.981     c0.347-1.254,0.855-2.35,1.525-3.286c0.67-0.821,1.355-1.377,2.055-1.67c0.718-0.276,1.4-0.406,2.052-0.389     c0.855,0.016,1.548,0.171,2.079,0.465c0.521,0.292,0.791,0.448,0.806,0.465L799.457,65.658z"
           id="path4603" /><path
           fill="#F5F5F5"
           d="M803.15,76.037h-3.359l3.283-18.612h3.359L803.15,76.037z M807.934,68.486l2.07,7.55l-3.648,0.252     l-1.779-8.005l3.383-5.945h3.939L807.934,68.486z"
           id="path4605" /><path
           fill="#F5F5F5"
           d="M814.76,76.037h-3.253l2.337-13.7h3.255L814.76,76.037z M817.821,58.454     c-0.019,0.537-0.194,0.985-0.528,1.344c-0.334,0.396-0.775,0.592-1.322,0.592c-0.539,0-0.975-0.197-1.309-0.592     c-0.369-0.359-0.553-0.808-0.553-1.344c0-0.546,0.184-1.006,0.553-1.384c0.334-0.344,0.77-0.522,1.309-0.541     c0.547,0.018,0.988,0.197,1.322,0.541C817.627,57.448,817.803,57.908,817.821,58.454z"
           id="path4607" /><path
           fill="#F5F5F5"
           d="M828.492,76.037h-3.361l1.656-9.493c0.083-0.481,0.107-0.87,0.074-1.165     c-0.051-0.286-0.24-0.43-0.566-0.43c-0.381,0.018-0.768,0.161-1.164,0.43c-0.396,0.295-0.747,0.633-1.061,1.012     c-0.725,0.92-1.094,1.414-1.111,1.48l-1.451,8.165h-3.357l2.41-13.703h2.628l0.188,2.449c0-0.049,0.395-0.504,1.188-1.362     c0.393-0.346,0.86-0.658,1.4-0.935c0.512-0.276,1.123-0.415,1.832-0.415c1.084,0.016,1.824,0.376,2.223,1.08     c0.378,0.72,0.466,1.627,0.264,2.722L828.492,76.037z"
           id="path4609" /><path
           fill="#F5F5F5"
           d="M841.42,74.754c-0.154,0.992-0.338,1.896-0.549,2.71c-0.236,0.809-0.57,1.494-1.006,2.058     c-0.43,0.572-0.992,0.987-1.674,1.25c-0.701,0.294-1.643,0.441-2.813,0.441c-0.45-0.017-0.915-0.08-1.394-0.188     c-0.492-0.084-0.943-0.184-1.357-0.301c-0.922-0.295-1.398-0.45-1.431-0.466l0.477-2.728c0.032,0.017,0.491,0.175,1.38,0.473     c0.848,0.29,1.693,0.442,2.533,0.459c0.945-0.017,1.626-0.328,2.043-0.932c0.406-0.611,0.676-1.463,0.805-2.555l0.172-1.187     c0,0.052-0.279,0.38-0.843,0.985c-0.269,0.236-0.597,0.459-0.979,0.669c-0.4,0.227-0.852,0.34-1.359,0.34     c-0.35,0-0.732-0.063-1.148-0.189c-0.4-0.117-0.783-0.341-1.15-0.668c-0.35-0.329-0.637-0.805-0.857-1.428     c-0.245-0.597-0.367-1.396-0.367-2.399c-0.023-2.087,0.422-4.086,1.347-5.997c0.488-0.901,1.116-1.632,1.885-2.197     c0.751-0.539,1.676-0.817,2.776-0.833c0.905,0.034,1.568,0.223,1.982,0.566c0.417,0.363,0.623,0.551,0.623,0.569l0.883-0.873     h2.127L841.42,74.754z M839.768,65.317c-0.014-0.016-0.183-0.118-0.5-0.304c-0.318-0.16-0.707-0.25-1.162-0.266     c-0.547,0.016-1.006,0.249-1.371,0.696c-0.398,0.474-0.709,1.056-0.931,1.749c-0.45,1.469-0.665,2.715-0.649,3.736     c0,0.945,0.107,1.566,0.32,1.863c0.203,0.295,0.473,0.434,0.806,0.418c0.333,0,0.663-0.148,0.979-0.444     c0.303-0.245,0.567-0.532,0.795-0.861c0.522-0.81,0.791-1.24,0.811-1.292L839.768,65.317z"
           id="path4611" /><path
           fill="#F5F5F5"
           d="M861.734,60.365c-0.016-0.016-0.274-0.13-0.781-0.34c-0.48-0.186-0.951-0.287-1.415-0.305     c-0.933-0.017-1.484,0.456-1.653,1.416l-0.242,1.2h2.59l-0.795,2.347h-2.211l-1.932,11.099c-0.328,1.996-1.027,3.363-2.095,4.104     c-1.067,0.724-2.739,1.077-5.013,1.061l0.416-2.499c1.086-0.068,1.875-0.325,2.376-0.771c0.495-0.431,0.814-1.105,0.958-2.023     l1.932-10.972h-1.805l0.416-2.347h1.805l0.205-1.084c0.311-1.586,0.875-2.67,1.689-3.249c0.793-0.571,1.797-0.848,3.018-0.832     c0.92,0.018,1.65,0.139,2.197,0.365c0.537,0.233,0.809,0.359,0.809,0.375L861.734,60.365z"
           id="path4613" /><path
           fill="#F5F5F5"
           d="M870.486,66.72c0,1.534-0.186,2.993-0.553,4.375c-0.396,1.399-0.98,2.555-1.75,3.464     c-1.084,1.153-2.572,1.73-4.465,1.73c-1.231,0.025-2.246-0.346-3.047-1.112c-0.838-0.758-1.27-2.051-1.282-3.879     c0-1.381,0.222-2.78,0.671-4.196c0.427-1.406,1.062-2.568,1.909-3.487c1.005-1.045,2.397-1.561,4.185-1.543     c1.166,0,2.169,0.344,3.009,1.033c0.415,0.361,0.744,0.835,0.979,1.424C870.369,65.14,870.486,65.872,870.486,66.72z      M867.305,66.72c0-0.835-0.098-1.434-0.293-1.796c-0.236-0.336-0.63-0.506-1.176-0.506c-0.621,0.018-1.131,0.283-1.527,0.797     c-0.425,0.515-0.76,1.164-1.006,1.948c-0.457,1.669-0.676,3.056-0.658,4.16c0,0.919,0.135,1.585,0.403,1.999     c0.236,0.396,0.569,0.594,1.003,0.594c0.653,0,1.188-0.293,1.602-0.884c0.418-0.564,0.75-1.243,1.004-2.037     C867.088,69.232,867.305,67.808,867.305,66.72z"
           id="path4615" /><path
           fill="#F5F5F5"
           d="M880.803,65.518c-0.078-0.093-0.543-0.215-1.402-0.367c-0.361,0-0.709,0.139-1.035,0.416     c-0.328,0.27-0.613,0.578-0.859,0.923c-0.53,0.867-0.797,1.326-0.797,1.377l-1.449,8.17H871.9l2.41-13.701h2.451l0.076,2.45     c-0.018-0.05,0.219-0.505,0.705-1.364c0.22-0.345,0.535-0.656,0.949-0.935c0.395-0.276,0.887-0.416,1.479-0.416     c0.916,0.101,1.384,0.231,1.397,0.391L880.803,65.518z"
           id="path4617" /><path
           fill="#F5F5F5"
           d="M898.215,76.037h-3.361l1.478-8.322h-4.14l-1.478,8.322h-3.359l3.183-18.095h3.357l-1.264,7.249h4.143     l1.262-7.249h3.361L898.215,76.037z"
           id="path4619" /><path
           fill="#F5F5F5"
           d="M911.174,76.037h-2.387l-0.221-2.236c0,0.05-0.295,0.46-0.879,1.231c-0.305,0.327-0.68,0.613-1.125,0.854     c-0.459,0.251-1.002,0.386-1.629,0.403c-2.373-0.034-3.309-1.542-2.813-4.521l1.602-9.431h3.264l-1.619,9.442     c-0.068,0.379-0.084,0.742-0.051,1.088c0.033,0.379,0.227,0.577,0.578,0.595c0.408,0,0.787-0.165,1.139-0.494     c0.35-0.27,0.662-0.599,0.941-0.986c0.555-0.893,0.842-1.374,0.855-1.441l1.408-8.204h3.26L911.174,76.037z"
           id="path4621" /><path
           fill="#F5F5F5"
           d="M930.802,76.037h-3.359l1.656-9.493c0.084-0.481,0.117-0.87,0.1-1.165     c-0.016-0.286-0.156-0.43-0.418-0.43c-0.328,0.018-0.662,0.161-1.01,0.43c-0.328,0.295-0.639,0.633-0.936,1.012     c-0.596,0.92-0.902,1.414-0.92,1.48l-1.451,8.165h-3.359l1.656-9.493c0.084-0.481,0.115-0.87,0.1-1.165     c-0.016-0.286-0.156-0.43-0.416-0.43c-0.328,0.018-0.666,0.161-1.012,0.43c-0.32,0.295-0.627,0.633-0.92,1.012     c-0.607,0.92-0.92,1.414-0.934,1.48l-1.454,8.165h-3.357l2.41-13.703h2.628l0.191,2.449c0-0.049,0.359-0.504,1.082-1.362     c0.361-0.346,0.783-0.658,1.264-0.935c0.463-0.276,0.996-0.415,1.604-0.415c0.844,0,1.451,0.24,1.828,0.719     c0.391,0.489,0.584,1.137,0.584,1.945c0.084-0.102,0.229-0.299,0.43-0.593c0.209-0.278,0.479-0.573,0.807-0.884     c0.346-0.329,0.752-0.61,1.215-0.846c0.443-0.227,0.936-0.341,1.477-0.341c1.018,0.016,1.715,0.376,2.094,1.08     c0.363,0.72,0.43,1.627,0.203,2.722L930.802,76.037z"
           id="path4623" /><path
           fill="#F5F5F5"
           d="M943.304,76.037h-2.385l-0.246-1.729c0,0.05-0.258,0.378-0.783,0.985     c-0.258,0.235-0.594,0.458-1.002,0.668c-0.416,0.203-0.896,0.312-1.443,0.329c-0.35,0-0.717-0.069-1.098-0.203     c-0.383-0.119-0.74-0.34-1.074-0.669c-0.332-0.345-0.594-0.812-0.781-1.401c-0.219-0.581-0.33-1.339-0.33-2.272     c-0.018-2.173,0.436-4.293,1.357-6.365c0.465-0.976,1.084-1.767,1.857-2.373c0.768-0.606,1.709-0.919,2.826-0.935     c0.861,0.016,1.506,0.171,1.93,0.466c0.385,0.329,0.574,0.501,0.574,0.517l0.932-0.72h1.99L943.304,76.037z M941.874,65.189     c-0.018-0.016-0.145-0.093-0.381-0.228c-0.246-0.126-0.574-0.199-0.99-0.214c-0.57,0.016-1.047,0.277-1.432,0.783     c-0.4,0.514-0.729,1.168-0.982,1.96c-0.463,1.679-0.689,3.184-0.67,4.516c0.014,1.138,0.313,1.699,0.893,1.682     c0.334,0,0.66-0.156,0.979-0.468c0.301-0.277,0.576-0.59,0.832-0.936c0.516-0.844,0.779-1.291,0.797-1.34L941.874,65.189z"
           id="path4625" /><path
           fill="#F5F5F5"
           d="M957.229,76.037h-3.357l1.652-9.493c0.084-0.481,0.109-0.87,0.074-1.165     c-0.051-0.286-0.238-0.43-0.566-0.43c-0.377,0.018-0.766,0.161-1.16,0.43c-0.398,0.295-0.75,0.633-1.061,1.012     c-0.725,0.92-1.096,1.414-1.111,1.48l-1.455,8.165h-3.357l2.412-13.703h2.627l0.189,2.449c0-0.049,0.395-0.504,1.186-1.362     c0.396-0.346,0.861-0.658,1.404-0.935c0.51-0.276,1.121-0.415,1.828-0.415c1.086,0.016,1.826,0.376,2.223,1.08     c0.381,0.72,0.469,1.627,0.264,2.722L957.229,76.037z"
           id="path4627" /><path
           fill="#F5F5F5"
           d="M963.661,76.037h-3.25l2.336-13.7h3.252L963.661,76.037z M966.724,58.454     c-0.018,0.537-0.191,0.985-0.527,1.344c-0.336,0.396-0.775,0.592-1.322,0.592c-0.539,0-0.977-0.197-1.309-0.592     c-0.367-0.359-0.553-0.808-0.553-1.344c0-0.546,0.186-1.006,0.553-1.384c0.332-0.344,0.77-0.522,1.309-0.541     c0.547,0.018,0.986,0.197,1.322,0.541C966.532,57.448,966.706,57.908,966.724,58.454z"
           id="path4629" /><path
           fill="#F5F5F5"
           d="M974.993,64.684h-2.209l-1.363,7.805c-0.176,0.767,0.082,1.15,0.771,1.15     c0.143,0,0.324-0.039,0.541-0.115c0.229-0.034,0.447-0.075,0.658-0.126c0.48-0.118,0.736-0.185,0.77-0.201l-0.469,2.612     c-0.014,0.017-0.297,0.092-0.844,0.228c-0.541,0.151-1.188,0.235-1.943,0.252c-2.275,0-3.221-1.229-2.844-3.688l1.365-7.918     h-1.805l0.416-2.347h1.807l0.932-3.106l3.184-1.036l-0.758,4.142h2.588L974.993,64.684z"
           id="path4631" /><path
           fill="#F5F5F5"
           d="M981.634,75.945c-0.781,1.923-1.801,3.238-3.053,3.945c-0.641,0.377-1.396,0.646-2.271,0.806     c-0.904,0.167-1.936,0.252-3.107,0.252l0.467-2.575c1.051-0.085,1.963-0.283,2.74-0.594c0.775-0.312,1.41-0.872,1.906-1.68     l-2.273-13.762h3.928l0.316,10.267l3.182-10.267h3.826L981.634,75.945z"
           id="path4633" /></g></g></g><g
     id="Layer_2"><g
       id="g4636"><g
         id="g4638"><path
           fill="#D6D6D6"
           d="M36.111,113.647l-0.964-3.929c-0.227-0.965-0.478-1.723-0.752-2.271     c-0.293-0.557-0.572-0.948-0.836-1.174l-1.319,0.104v7.27h-4.545V94.914h5.7c1.048,0,2.029,0.051,2.943,0.156     c0.888,0.139,1.676,0.396,2.366,0.772c0.699,0.374,1.241,0.918,1.626,1.634c0.368,0.715,0.551,1.661,0.551,2.836     c0,1.5-0.276,2.624-0.828,3.373c-0.578,0.768-1.365,1.33-2.363,1.688c0.789,0.539,1.468,1.737,2.038,3.594l1.432,4.681H36.111z      M36.338,100.351c0-0.819-0.222-1.399-0.667-1.739c-0.482-0.305-1.323-0.458-2.524-0.458H32.24v5.334     c0.68-0.069,1.281-0.16,1.801-0.274c0.51-0.105,0.941-0.266,1.291-0.483c0.34-0.21,0.601-0.51,0.78-0.902     C36.262,101.455,36.338,100.961,36.338,100.351z"
           id="path4640" /><path
           fill="#D6D6D6"
           d="M50.92,113.646l-0.486-1.26c0,0.036-0.348,0.285-1.043,0.749c-0.348,0.202-0.771,0.373-1.269,0.512     c-0.517,0.156-1.124,0.245-1.818,0.263c-0.429,0-0.868-0.061-1.314-0.184c-0.473-0.122-0.915-0.344-1.326-0.667     c-0.412-0.339-0.745-0.814-0.999-1.424c-0.263-0.584-0.394-1.352-0.394-2.302c0-0.976,0.195-1.769,0.585-2.379     c0.354-0.61,0.807-1.072,1.361-1.386c0.581-0.34,1.184-0.575,1.81-0.705c0.635-0.087,1.221-0.131,1.756-0.131h2.573v-0.825     c0-0.557-0.151-0.924-0.453-1.097c-0.301-0.167-0.791-0.249-1.468-0.249c-1.024,0.017-2.044,0.144-3.06,0.378     c-1.07,0.228-1.624,0.354-1.661,0.38v-3.293c0.019-0.017,0.58-0.162,1.685-0.432c1.051-0.252,2.286-0.387,3.705-0.404     c1.652-0.019,3.023,0.269,4.109,0.862c0.53,0.34,0.953,0.82,1.267,1.439c0.278,0.644,0.417,1.458,0.417,2.442v9.714H50.92z      M50.355,106.928l-0.885,0.025c-0.953,0-1.633,0.152-2.042,0.457c-0.428,0.304-0.632,0.864-0.614,1.681     c0,0.678,0.132,1.139,0.399,1.382c0.276,0.251,0.628,0.37,1.057,0.351c0.542-0.017,1.018-0.125,1.427-0.326     c0.419-0.156,0.637-0.243,0.657-0.26V106.928z"
           id="path4642" /><path
           fill="#D6D6D6"
           d="M67.42,113.647v-9.701c0-0.471-0.09-0.793-0.268-0.968c-0.189-0.157-0.547-0.235-1.075-0.235     c-0.726,0.017-1.4,0.156-2.022,0.418c-0.66,0.289-1,0.44-1.019,0.458v10.028h-4.542V99.462h4.008l0.611,1.438     c0.018-0.034,0.485-0.319,1.399-0.851c0.444-0.234,0.96-0.431,1.548-0.587c0.563-0.184,1.165-0.273,1.808-0.273     c1.208-0.019,2.189,0.279,2.942,0.889c0.753,0.636,1.139,1.751,1.156,3.345v10.225H67.42z"
           id="path4644" /><path
           fill="#D6D6D6"
           d="M84.225,113.646l-0.513-1.077c0,0.036-0.322,0.25-0.965,0.643c-0.336,0.166-0.739,0.32-1.21,0.459     c-0.462,0.14-0.997,0.219-1.604,0.237c-0.581,0-1.192-0.08-1.836-0.236c-0.652-0.175-1.278-0.515-1.876-1.02     c-0.571-0.497-1.042-1.237-1.414-2.222c-0.39-0.976-0.585-2.27-0.585-3.883c0-1.639,0.241-2.959,0.722-3.961     c0.463-0.977,1.021-1.709,1.674-2.197c0.671-0.496,1.352-0.836,2.042-1.02c0.662-0.123,1.225-0.182,1.688-0.182     c1.006,0.018,1.778,0.178,2.313,0.482c0.508,0.34,0.763,0.519,0.763,0.537v-5.83h4.542v19.268H84.225z M83.424,102.964     c0-0.017-0.184-0.126-0.55-0.326c-0.349-0.156-0.791-0.245-1.326-0.262c-0.405,0-0.772,0.026-1.101,0.079     c-0.349,0.07-0.649,0.248-0.903,0.536c-0.226,0.269-0.409,0.678-0.55,1.227c-0.057,0.288-0.104,0.618-0.141,0.993     c-0.057,0.391-0.085,0.836-0.085,1.331c0,0.931,0.067,1.672,0.198,2.221c0.122,0.591,0.287,1.031,0.494,1.318     c0.443,0.496,1.04,0.727,1.793,0.692c0.583-0.017,1.086-0.143,1.509-0.379c0.423-0.208,0.645-0.321,0.664-0.339V102.964z"
           id="path4646" /><path
           fill="#D6D6D6"
           d="M104.433,106.541c-0.018,1.597-0.232,2.875-0.645,3.834c-0.413,0.985-0.97,1.736-1.672,2.251     c-0.684,0.506-1.422,0.846-2.212,1.02c-0.395,0.071-0.798,0.131-1.21,0.183c-0.414,0.053-0.808,0.08-1.185,0.08     c-0.772,0-1.554-0.097-2.344-0.289c-0.79-0.182-1.536-0.522-2.238-1.02c-0.685-0.515-1.233-1.264-1.646-2.248     c-0.447-0.985-0.671-2.253-0.671-3.805s0.215-2.815,0.646-3.792c0.413-0.967,0.961-1.708,1.646-2.222     c0.675-0.541,1.421-0.906,2.238-1.098c0.789-0.164,1.58-0.247,2.37-0.247c0.412,0,0.816,0.007,1.211,0.026     c0.413,0.034,0.816,0.108,1.211,0.221c0.79,0.174,1.527,0.518,2.212,1.031c0.703,0.506,1.26,1.247,1.672,2.221     C104.227,103.673,104.433,104.957,104.433,106.541z M99.89,106.541c0-0.979-0.044-1.768-0.132-2.364     c-0.106-0.585-0.27-1.024-0.49-1.313c-0.433-0.507-1.019-0.741-1.76-0.697c-0.344,0-0.653,0.044-0.927,0.131     c-0.291,0.122-0.542,0.338-0.754,0.644c-0.45,0.569-0.675,1.768-0.675,3.598c0,0.92,0.07,1.655,0.212,2.207     c0.07,0.29,0.163,0.543,0.278,0.762c0.07,0.228,0.159,0.425,0.264,0.592c0.468,0.568,1.001,0.836,1.602,0.802     c0.309,0,0.604-0.052,0.887-0.158c0.291-0.114,0.547-0.311,0.768-0.591c0.212-0.289,0.393-0.731,0.543-1.327     C99.829,108.275,99.89,107.514,99.89,106.541z"
           id="path4648" /><path
           fill="#D6D6D6"
           d="M123.556,113.647v-9.779c0-0.793-0.437-1.169-1.309-1.125c-0.588,0.017-1.134,0.121-1.637,0.313     c-0.541,0.236-0.821,0.362-0.84,0.379v10.211h-4.516v-9.779c0-0.793-0.436-1.169-1.309-1.125     c-0.607,0.017-1.163,0.121-1.665,0.313c-0.531,0.236-0.806,0.362-0.825,0.379v10.211h-4.545V99.462h4.01l0.611,1.307     c0-0.035,0.39-0.3,1.169-0.798c0.372-0.218,0.829-0.404,1.373-0.562c0.517-0.148,1.11-0.221,1.781-0.221     c1.739-0.019,2.936,0.619,3.588,1.908c0.553-0.506,1.21-0.945,1.971-1.32c0.78-0.375,1.69-0.57,2.732-0.588     c1.147,0,2.098,0.304,2.851,0.914c0.719,0.646,1.086,1.751,1.104,3.32v10.225H123.556z"
           id="path4650" /><path
           fill="#D6D6D6"
           d="M148.977,113.647v-8.304h-4.643v8.304h-4.542V94.914h4.542v7.217h4.643v-7.217h4.543v18.733H148.977z"
           id="path4652" /><path
           fill="#D6D6D6"
           d="M164.77,113.646l-0.486-1.26c0,0.036-0.348,0.285-1.043,0.749c-0.347,0.202-0.771,0.373-1.27,0.512     c-0.516,0.156-1.123,0.245-1.819,0.263c-0.429,0-0.867-0.061-1.313-0.184c-0.473-0.122-0.916-0.344-1.327-0.667     c-0.412-0.339-0.744-0.814-0.999-1.424c-0.262-0.584-0.394-1.352-0.394-2.302c0-0.976,0.195-1.769,0.585-2.379     c0.353-0.61,0.807-1.072,1.361-1.386c0.581-0.34,1.184-0.575,1.812-0.705c0.634-0.087,1.219-0.131,1.755-0.131h2.573v-0.825     c0-0.557-0.151-0.924-0.453-1.097c-0.302-0.167-0.791-0.249-1.467-0.249c-1.025,0.017-2.045,0.144-3.06,0.378     c-1.071,0.228-1.624,0.354-1.662,0.38v-3.293c0.02-0.017,0.581-0.162,1.686-0.432c1.051-0.252,2.286-0.387,3.705-0.404     c1.652-0.019,3.022,0.269,4.109,0.862c0.531,0.34,0.952,0.82,1.267,1.439c0.278,0.644,0.417,1.458,0.417,2.442v9.714H164.77z      M164.205,106.928l-0.886,0.025c-0.952,0-1.632,0.152-2.041,0.457c-0.428,0.304-0.633,0.864-0.614,1.681     c0,0.678,0.133,1.139,0.399,1.382c0.276,0.251,0.628,0.37,1.057,0.351c0.542-0.017,1.018-0.125,1.427-0.326     c0.418-0.156,0.638-0.243,0.657-0.26V106.928z"
           id="path4654" /><path
           fill="#D6D6D6"
           d="M181.881,113.242c-0.018,0.017-0.397,0.126-1.133,0.327c-0.722,0.209-1.611,0.321-2.664,0.34     c-0.684,0-1.393-0.072-2.129-0.209c-0.771-0.158-1.49-0.471-2.155-0.943c-0.666-0.497-1.205-1.229-1.617-2.195     c-0.428-0.975-0.643-2.288-0.643-3.936c0-1.637,0.25-2.959,0.75-3.961c0.465-0.994,1.056-1.743,1.775-2.248     c0.72-0.498,1.465-0.833,2.238-1.007c0.771-0.149,1.472-0.222,2.104-0.222c1.026,0.018,1.864,0.125,2.513,0.326     c0.623,0.227,0.943,0.348,0.96,0.367v3.214c-0.036-0.017-0.405-0.122-1.107-0.314c-0.703-0.165-1.349-0.257-1.938-0.274     c-0.343,0-0.676,0.036-1.001,0.105c-0.325,0.096-0.62,0.283-0.882,0.562c-0.256,0.287-0.458,0.71-0.607,1.268     c-0.176,0.549-0.264,1.278-0.264,2.184c0,0.811,0.069,1.465,0.211,1.962c0.114,0.515,0.276,0.914,0.487,1.203     c0.431,0.496,1.04,0.736,1.832,0.719c0.72-0.017,1.432-0.122,2.135-0.314c0.721-0.165,1.098-0.257,1.133-0.273V113.242z"
           id="path4656" /><path
           fill="#D6D6D6"
           d="M183.883,113.647V94.379h4.542v19.268H183.883z M192.129,113.909l-3.534-8.159l2.941-6.287h5.129     l-3.507,6.105l4.048,8.079L192.129,113.909z"
           id="path4658" /><path
           fill="#D6D6D6"
           d="M208.487,109.333c0,0.985-0.174,1.781-0.524,2.392c-0.347,0.62-0.813,1.091-1.394,1.412     c-0.591,0.306-1.235,0.511-1.933,0.614c-0.733,0.105-1.476,0.158-2.226,0.158c-1.11-0.019-2.106-0.131-2.992-0.34     c-0.912-0.201-1.377-0.31-1.395-0.327v-3.425c0.036,0.018,0.564,0.135,1.582,0.354c0.972,0.227,1.813,0.348,2.522,0.366     c0.573,0.019,1.035-0.035,1.391-0.157c0.355-0.104,0.532-0.388,0.532-0.851c0-0.392-0.193-0.679-0.58-0.862     c-0.386-0.175-0.851-0.335-1.396-0.484l-1.075-0.365c-0.359-0.131-0.726-0.302-1.103-0.51c-0.375-0.184-0.733-0.437-1.074-0.758     c-0.324-0.323-0.582-0.715-0.774-1.177c-0.236-0.462-0.354-1.025-0.354-1.688c0-0.905,0.184-1.655,0.551-2.248     c0.349-0.583,0.796-1.036,1.342-1.359c0.573-0.339,1.208-0.576,1.905-0.707c0.699-0.123,1.402-0.182,2.109-0.182     c1.234,0.018,2.237,0.125,3.006,0.326c0.771,0.227,1.164,0.348,1.182,0.367v3.293c-0.035-0.017-0.478-0.131-1.328-0.34     c-0.805-0.2-1.619-0.31-2.443-0.327c-1.316-0.017-1.955,0.306-1.918,0.968c0,0.34,0.212,0.587,0.637,0.746     c0.386,0.183,0.84,0.344,1.364,0.483l1.181,0.405c0.394,0.105,0.778,0.258,1.155,0.458c0.376,0.209,0.717,0.475,1.023,0.797     c0.306,0.323,0.56,0.724,0.761,1.203C208.4,108.048,208.487,108.637,208.487,109.333z"
           id="path4660" /><path
           fill="#D6D6D6"
           d="M231.579,106.541c-0.019,1.597-0.232,2.875-0.645,3.834c-0.412,0.985-0.97,1.736-1.671,2.251     c-0.686,0.506-1.423,0.846-2.212,1.02c-0.396,0.071-0.798,0.131-1.212,0.183c-0.413,0.053-0.808,0.08-1.185,0.08     c-0.773,0-1.554-0.097-2.344-0.289c-0.79-0.182-1.536-0.522-2.237-1.02c-0.686-0.515-1.234-1.264-1.646-2.248     c-0.449-0.985-0.671-2.253-0.671-3.805s0.215-2.815,0.645-3.792c0.413-0.967,0.961-1.708,1.646-2.222     c0.676-0.541,1.422-0.906,2.238-1.098c0.791-0.164,1.58-0.247,2.37-0.247c0.412,0,0.816,0.007,1.21,0.026     c0.413,0.034,0.816,0.108,1.211,0.221c0.79,0.174,1.528,0.518,2.212,1.031c0.702,0.506,1.259,1.247,1.672,2.221     C231.373,103.673,231.579,104.957,231.579,106.541z M227.037,106.541c0-0.979-0.045-1.768-0.133-2.364     c-0.105-0.585-0.269-1.024-0.49-1.313c-0.432-0.507-1.019-0.741-1.76-0.697c-0.344,0-0.653,0.044-0.928,0.131     c-0.29,0.122-0.541,0.338-0.753,0.644c-0.451,0.569-0.676,1.768-0.676,3.598c0,0.92,0.071,1.655,0.212,2.207     c0.071,0.29,0.164,0.543,0.278,0.762c0.071,0.228,0.159,0.425,0.265,0.592c0.467,0.568,1.002,0.836,1.602,0.802     c0.308,0,0.605-0.052,0.887-0.158c0.291-0.114,0.547-0.311,0.768-0.591c0.212-0.289,0.392-0.731,0.543-1.327     C226.974,108.275,227.037,107.514,227.037,106.541z"
           id="path4662" /><path
           fill="#D6D6D6"
           d="M243.548,97.658c-0.035,0-0.387-0.07-1.055-0.209c-0.65-0.123-1.297-0.183-1.938-0.183     c-0.512,0-0.839,0.122-0.98,0.367c-0.142,0.251-0.211,0.61-0.211,1.072v0.758h3.103l-0.436,2.824h-2.667v11.362h-4.543v-11.362     h-2.307v-2.824h2.307v-1.02c0.018-1.663,0.486-2.832,1.406-3.503c0.893-0.663,2.024-0.985,3.391-0.967     c1.166,0.017,2.107,0.122,2.826,0.313c0.719,0.218,1.086,0.335,1.104,0.354V97.658z"
           id="path4664" /><path
           fill="#D6D6D6"
           d="M252.199,113.647V94.914h4.543v18.733H252.199z M261.196,113.909l-4.285-10.303l3.996-8.692h5.024     l-4.51,8.509l4.773,10.225L261.196,113.909z"
           id="path4666" /><path
           fill="#D6D6D6"
           d="M272.546,95.259c0,0.679-0.224,1.257-0.67,1.735c-0.474,0.521-1.078,0.781-1.814,0.781     c-0.709,0-1.301-0.261-1.773-0.781c-0.482-0.478-0.724-1.056-0.724-1.735c0-0.712,0.242-1.306,0.724-1.786     c0.472-0.476,1.064-0.723,1.773-0.742c0.737,0.019,1.34,0.266,1.814,0.742C272.322,93.953,272.546,94.547,272.546,95.259z      M267.782,113.647V99.463h4.542v14.184H267.782z"
           id="path4668" /><path
           fill="#D6D6D6"
           d="M284.629,113.647v-9.701c0-0.471-0.09-0.793-0.27-0.968c-0.188-0.157-0.546-0.235-1.074-0.235     c-0.726,0.017-1.4,0.156-2.022,0.418c-0.661,0.289-1,0.44-1.019,0.458v10.028h-4.543V99.462h4.008l0.611,1.438     c0.019-0.034,0.485-0.319,1.4-0.851c0.444-0.234,0.959-0.431,1.548-0.587c0.561-0.184,1.164-0.273,1.806-0.273     c1.208-0.019,2.19,0.279,2.943,0.889c0.753,0.636,1.138,1.751,1.156,3.345v10.225H284.629z"
           id="path4670" /><path
           fill="#D6D6D6"
           d="M301.433,113.646l-0.512-1.077c0,0.036-0.321,0.25-0.965,0.643c-0.336,0.166-0.739,0.32-1.211,0.459     c-0.461,0.14-0.997,0.219-1.604,0.237c-0.579,0-1.191-0.08-1.835-0.236c-0.653-0.175-1.277-0.515-1.876-1.02     c-0.571-0.497-1.042-1.237-1.414-2.222c-0.39-0.976-0.584-2.27-0.584-3.883c0-1.639,0.24-2.959,0.721-3.961     c0.462-0.977,1.021-1.709,1.674-2.197c0.671-0.496,1.352-0.836,2.042-1.02c0.663-0.123,1.225-0.182,1.688-0.182     c1.006,0.018,1.777,0.178,2.313,0.482c0.509,0.34,0.763,0.519,0.763,0.537v-5.83h4.542v19.268H301.433z M300.632,102.964     c0-0.017-0.184-0.126-0.55-0.326c-0.349-0.156-0.792-0.245-1.327-0.262c-0.405,0-0.772,0.026-1.101,0.079     c-0.349,0.07-0.65,0.248-0.904,0.536c-0.225,0.269-0.408,0.678-0.551,1.227c-0.056,0.288-0.103,0.618-0.141,0.993     c-0.056,0.391-0.084,0.836-0.084,1.331c0,0.931,0.065,1.672,0.197,2.221c0.123,0.591,0.287,1.031,0.494,1.318     c0.443,0.496,1.039,0.727,1.792,0.692c0.583-0.017,1.086-0.143,1.509-0.379c0.423-0.208,0.645-0.321,0.664-0.339V102.964z"
           id="path4672" /><path
           fill="#D6D6D6"
           d="M317.739,113.647v-9.701c0-0.471-0.09-0.793-0.269-0.968c-0.189-0.157-0.547-0.235-1.076-0.235     c-0.726,0.017-1.4,0.156-2.021,0.418c-0.661,0.289-1,0.44-1.019,0.458v10.028h-4.542V99.462h4.007l0.612,1.438     c0.019-0.034,0.485-0.319,1.399-0.851c0.444-0.234,0.96-0.431,1.548-0.587c0.562-0.184,1.165-0.273,1.807-0.273     c1.208-0.019,2.189,0.279,2.942,0.889c0.753,0.636,1.139,1.751,1.156,3.345v10.225H317.739z"
           id="path4674" /><path
           fill="#D6D6D6"
           d="M337.452,107.947h-8.121c0.053,1.089,0.337,1.795,0.857,2.119c0.509,0.332,1.168,0.489,1.977,0.471     c0.896-0.018,1.858-0.131,2.887-0.34c1.045-0.2,1.585-0.308,1.621-0.327v3.32c-0.018,0.017-0.496,0.135-1.434,0.353     c-0.93,0.228-2.045,0.349-3.343,0.367c-0.378,0-0.764-0.027-1.158-0.08c-0.395-0.034-0.799-0.086-1.21-0.156     c-0.808-0.14-1.57-0.462-2.291-0.967c-0.719-0.498-1.285-1.239-1.698-2.222c-0.465-0.977-0.698-2.288-0.698-3.936     c0-1.499,0.207-2.737,0.619-3.712c0.377-0.968,0.882-1.709,1.514-2.222c0.623-0.559,1.32-0.933,2.093-1.125     c0.754-0.2,1.5-0.3,2.238-0.3c0.718,0,1.447,0.1,2.184,0.3c0.737,0.192,1.413,0.559,2.028,1.099     c0.604,0.515,1.088,1.257,1.446,2.226c0.36,0.977,0.533,2.224,0.514,3.742L337.452,107.947z M333.113,105.411     c0-1.186-0.128-2.064-0.383-2.635c-0.254-0.563-0.734-0.844-1.437-0.844c-0.791,0-1.309,0.289-1.555,0.87     c-0.272,0.589-0.417,1.458-0.435,2.609H333.113z"
           id="path4676" /><path
           fill="#D6D6D6"
           d="M349.747,109.333c0,0.985-0.175,1.781-0.523,2.392c-0.349,0.62-0.814,1.091-1.396,1.412     c-0.589,0.306-1.234,0.511-1.931,0.614c-0.734,0.105-1.476,0.158-2.227,0.158c-1.109-0.019-2.106-0.131-2.991-0.34     c-0.913-0.201-1.378-0.31-1.396-0.327v-3.425c0.036,0.018,0.563,0.135,1.582,0.354c0.973,0.227,1.813,0.348,2.522,0.366     c0.573,0.019,1.036-0.035,1.392-0.157c0.354-0.104,0.531-0.388,0.531-0.851c0-0.392-0.192-0.679-0.579-0.862     c-0.386-0.175-0.851-0.335-1.396-0.484l-1.076-0.365c-0.359-0.131-0.726-0.302-1.101-0.51c-0.376-0.184-0.734-0.437-1.076-0.758     c-0.323-0.323-0.58-0.715-0.773-1.177c-0.237-0.462-0.354-1.025-0.354-1.688c0-0.905,0.184-1.655,0.549-2.248     c0.35-0.583,0.798-1.036,1.343-1.359c0.573-0.339,1.208-0.576,1.906-0.707c0.698-0.123,1.401-0.182,2.108-0.182     c1.234,0.018,2.236,0.125,3.007,0.326c0.77,0.227,1.163,0.348,1.181,0.367v3.293c-0.036-0.017-0.478-0.131-1.328-0.34     c-0.805-0.2-1.62-0.31-2.444-0.327c-1.315-0.017-1.955,0.306-1.918,0.968c0,0.34,0.211,0.587,0.637,0.746     c0.386,0.183,0.84,0.344,1.364,0.483l1.181,0.405c0.394,0.105,0.779,0.258,1.155,0.458c0.376,0.209,0.717,0.475,1.023,0.797     c0.306,0.323,0.56,0.724,0.761,1.203C349.659,108.048,349.747,108.637,349.747,109.333z"
           id="path4678" /><path
           fill="#D6D6D6"
           d="M361.531,109.333c0,0.985-0.174,1.781-0.524,2.392c-0.348,0.62-0.813,1.091-1.396,1.412     c-0.589,0.306-1.233,0.511-1.931,0.614c-0.733,0.105-1.475,0.158-2.227,0.158c-1.109-0.019-2.106-0.131-2.991-0.34     c-0.913-0.201-1.378-0.31-1.396-0.327v-3.425c0.038,0.018,0.563,0.135,1.583,0.354c0.972,0.227,1.813,0.348,2.521,0.366     c0.573,0.019,1.038-0.035,1.392-0.157c0.354-0.104,0.533-0.388,0.533-0.851c0-0.392-0.193-0.679-0.58-0.862     c-0.386-0.175-0.851-0.335-1.396-0.484l-1.076-0.365c-0.358-0.131-0.725-0.302-1.101-0.51c-0.376-0.184-0.734-0.437-1.076-0.758     c-0.323-0.323-0.582-0.715-0.774-1.177c-0.236-0.462-0.354-1.025-0.354-1.688c0-0.905,0.183-1.655,0.55-2.248     c0.349-0.583,0.796-1.036,1.342-1.359c0.573-0.339,1.208-0.576,1.907-0.707c0.698-0.123,1.4-0.182,2.108-0.182     c1.235,0.018,2.237,0.125,3.007,0.326c0.77,0.227,1.164,0.348,1.182,0.367v3.293c-0.036-0.017-0.479-0.131-1.327-0.34     c-0.806-0.2-1.622-0.31-2.443-0.327c-1.316-0.017-1.956,0.306-1.918,0.968c0,0.34,0.211,0.587,0.637,0.746     c0.386,0.183,0.84,0.344,1.364,0.483l1.181,0.405c0.394,0.105,0.778,0.258,1.155,0.458c0.376,0.209,0.718,0.475,1.024,0.797     c0.307,0.323,0.56,0.724,0.761,1.203C361.444,108.048,361.531,108.637,361.531,109.333z"
           id="path4680" /></g></g><rect
       x="48.666"
       y="20.259"
       opacity="0.83"
       fill="#2C87C5"
       width="20.768"
       height="20.769"
       id="rect4682" /><rect
       x="70.918"
       y="20.259"
       opacity="0.83"
       fill="#2C87C5"
       width="20.768"
       height="20.769"
       id="rect4684" /><rect
       x="115.421"
       y="20.259"
       opacity="0.83"
       fill="#2C87C5"
       width="20.769"
       height="20.769"
       id="rect4686" /><rect
       x="26.414"
       y="42.511"
       opacity="0.83"
       fill="#2C87C5"
       width="20.768"
       height="20.769"
       id="rect4688" /><rect
       x="115.421"
       y="42.511"
       opacity="0.83"
       fill="#2C87C5"
       width="20.769"
       height="20.769"
       id="rect4690" /><rect
       x="137.673"
       y="42.511"
       opacity="0.83"
       fill="#2C87C5"
       width="20.768"
       height="20.769"
       id="rect4692" /><rect
       x="159.924"
       y="42.511"
       opacity="0.83"
       fill="#2C87C5"
       width="20.769"
       height="20.769"
       id="rect4694" /><rect
       x="26.414"
       y="64.763"
       opacity="0.83"
       fill="#2C87C5"
       width="20.768"
       height="20.769"
       id="rect4696" /><rect
       x="115.421"
       y="64.763"
       opacity="0.83"
       fill="#2C87C5"
       width="20.769"
       height="20.769"
       id="rect4698" /><rect
       x="159.924"
       y="64.763"
       opacity="0.83"
       fill="#2C87C5"
       width="20.769"
       height="20.769"
       id="rect4700" /><rect
       x="204.427"
       y="42.511"
       opacity="0.83"
       fill="#2C87C5"
       width="20.769"
       height="20.769"
       id="rect4702" /><rect
       x="226.679"
       y="20.259"
       opacity="0.83"
       fill="#2C87C5"
       width="20.768"
       height="20.769"
       id="rect4704" /><rect
       x="226.679"
       y="64.763"
       opacity="0.83"
       fill="#2C87C5"
       width="20.768"
       height="20.769"
       id="rect4706" /><rect
       x="248.931"
       y="42.511"
       opacity="0.83"
       fill="#2C87C5"
       width="20.768"
       height="20.769"
       id="rect4708" /><rect
       x="293.434"
       y="20.259"
       opacity="0.83"
       fill="#2C87C5"
       width="20.769"
       height="20.769"
       id="rect4710" /><rect
       x="293.434"
       y="42.511"
       opacity="0.83"
       fill="#2C87C5"
       width="20.769"
       height="20.769"
       id="rect4712" /><rect
       x="293.434"
       y="64.763"
       opacity="0.83"
       fill="#2C87C5"
       width="20.769"
       height="20.769"
       id="rect4714" /><rect
       x="315.685"
       y="42.511"
       opacity="0.83"
       fill="#2C87C5"
       width="20.769"
       height="20.769"
       id="rect4716" /><rect
       x="337.937"
       y="20.259"
       opacity="0.83"
       fill="#2C87C5"
       width="20.769"
       height="20.769"
       id="rect4718" /><rect
       x="337.937"
       y="64.763"
       opacity="0.83"
       fill="#2C87C5"
       width="20.769"
       height="20.769"
       id="rect4720" /><rect
       x="51.008"
       y="23.383"
       opacity="0.25"
       fill="#2C87C5"
       width="20.768"
       height="20.769"
       id="rect4722" /><rect
       x="73.261"
       y="23.383"
       opacity="0.25"
       fill="#2C87C5"
       width="20.769"
       height="20.769"
       id="rect4724" /><rect
       x="117.764"
       y="23.383"
       opacity="0.25"
       fill="#2C87C5"
       width="20.768"
       height="20.769"
       id="rect4726" /><rect
       x="28.757"
       y="45.635"
       opacity="0.25"
       fill="#2C87C5"
       width="20.768"
       height="20.769"
       id="rect4728" /><rect
       x="117.764"
       y="45.635"
       opacity="0.25"
       fill="#2C87C5"
       width="20.768"
       height="20.769"
       id="rect4730" /><rect
       x="140.016"
       y="45.635"
       opacity="0.25"
       fill="#2C87C5"
       width="20.768"
       height="20.769"
       id="rect4732" /><rect
       x="162.267"
       y="45.635"
       opacity="0.25"
       fill="#2C87C5"
       width="20.769"
       height="20.769"
       id="rect4734" /><rect
       x="28.757"
       y="67.887"
       opacity="0.25"
       fill="#2C87C5"
       width="20.768"
       height="20.769"
       id="rect4736" /><rect
       x="117.764"
       y="67.887"
       opacity="0.25"
       fill="#2C87C5"
       width="20.768"
       height="20.769"
       id="rect4738" /><rect
       x="162.267"
       y="67.887"
       opacity="0.25"
       fill="#2C87C5"
       width="20.769"
       height="20.769"
       id="rect4740" /><rect
       x="206.77"
       y="45.635"
       opacity="0.25"
       fill="#2C87C5"
       width="20.768"
       height="20.769"
       id="rect4742" /><rect
       x="229.022"
       y="23.383"
       opacity="0.25"
       fill="#2C87C5"
       width="20.768"
       height="20.769"
       id="rect4744" /><rect
       x="229.022"
       y="67.887"
       opacity="0.25"
       fill="#2C87C5"
       width="20.768"
       height="20.769"
       id="rect4746" /><rect
       x="251.273"
       y="45.635"
       opacity="0.25"
       fill="#2C87C5"
       width="20.768"
       height="20.769"
       id="rect4748" /><rect
       x="295.776"
       y="23.383"
       opacity="0.25"
       fill="#2C87C5"
       width="20.769"
       height="20.769"
       id="rect4750" /><rect
       x="295.776"
       y="45.635"
       opacity="0.25"
       fill="#2C87C5"
       width="20.769"
       height="20.769"
       id="rect4752" /><rect
       x="295.776"
       y="67.887"
       opacity="0.25"
       fill="#2C87C5"
       width="20.769"
       height="20.769"
       id="rect4754" /><rect
       x="318.028"
       y="45.635"
       opacity="0.25"
       fill="#2C87C5"
       width="20.769"
       height="20.769"
       id="rect4756" /><rect
       x="340.28"
       y="23.383"
       opacity="0.25"
       fill="#2C87C5"
       width="20.769"
       height="20.769"
       id="rect4758" /><rect
       x="340.28"
       y="67.887"
       opacity="0.25"
       fill="#2C87C5"
       width="20.769"
       height="20.769"
       id="rect4760" /><g
       id="g4762"><rect
         x="159.989"
         y="153.724"
         opacity="0.83"
         fill="#2C87C5"
         width="20.769"
         height="20.769"
         id="rect4764" /><rect
         x="162.332"
         y="156.848"
         opacity="0.25"
         fill="#2C87C5"
         width="20.768"
         height="20.769"
         id="rect4766" /></g><g
       opacity="0.55"
       id="g4768"><rect
         x="25.999"
         y="131.969"
         opacity="0.83"
         fill="#2C87C5"
         width="20.768"
         height="20.768"
         id="rect4770" /><rect
         x="28.341"
         y="135.093"
         opacity="0.25"
         fill="#2C87C5"
         width="20.769"
         height="20.768"
         id="rect4772" /></g><g
       opacity="0.55"
       id="g4774"><rect
         x="247.562"
         y="131.379"
         opacity="0.83"
         fill="#2C87C5"
         width="20.768"
         height="20.769"
         id="rect4776" /><rect
         x="249.904"
         y="134.503"
         opacity="0.25"
         fill="#2C87C5"
         width="20.768"
         height="20.769"
         id="rect4778" /></g><g
       opacity="0.19"
       id="g4780"><rect
         x="1.896"
         y="249.184"
         opacity="0.83"
         fill="#2C87C5"
         width="20.768"
         height="20.769"
         id="rect4782" /><rect
         x="4.239"
         y="252.308"
         opacity="0.25"
         fill="#2C87C5"
         width="20.769"
         height="20.769"
         id="rect4784" /></g><g
       id="g4786"><rect
         x="743.672"
         y="13.708"
         opacity="0.83"
         fill="#2C87C5"
         width="26.592"
         height="26.593"
         id="rect4788" /><rect
         x="746.672"
         y="17.708"
         opacity="0.25"
         fill="#2C87C5"
         width="26.592"
         height="26.593"
         id="rect4790" /></g><g
       id="g4792"><rect
         x="71.039"
         y="316.439"
         opacity="0.83"
         fill="#2C87C5"
         width="17.778"
         height="17.779"
         id="rect4794" /><rect
         x="73.044"
         y="319.113"
         opacity="0.25"
         fill="#2C87C5"
         width="17.777"
         height="17.779"
         id="rect4796" /></g><g
       id="g4798"><rect
         x="936.971"
         y="139.775"
         opacity="0.83"
         fill="#2C87C5"
         width="18.908"
         height="18.908"
         id="rect4800" /><rect
         x="939.104"
         y="142.619"
         opacity="0.25"
         fill="#2C87C5"
         width="18.907"
         height="18.908"
         id="rect4802" /></g><g
       id="g4804"><rect
         x="69.725"
         y="451.417"
         opacity="0.83"
         fill="#2C87C5"
         width="13.138"
         height="13.139"
         id="rect4806" /><rect
         x="71.208"
         y="453.393"
         opacity="0.25"
         fill="#2C87C5"
         width="13.138"
         height="13.14"
         id="rect4808" /></g><g
       id="g4810"><rect
         x="114.92"
         y="539.951"
         opacity="0.83"
         fill="#2C87C5"
         width="11.47"
         height="11.471"
         id="rect4812" /><rect
         x="116.213"
         y="541.676"
         opacity="0.25"
         fill="#2C87C5"
         width="11.471"
         height="11.473"
         id="rect4814" /></g><g
       id="g4816"><rect
         x="68.365"
         y="177.726"
         opacity="0.83"
         fill="#2C87C5"
         width="20.769"
         height="20.769"
         id="rect4818" /><rect
         x="70.708"
         y="180.85"
         opacity="0.25"
         fill="#2C87C5"
         width="20.768"
         height="20.769"
         id="rect4820" /></g><g
       opacity="0.32"
       id="g4822"><rect
         x="115.912"
         y="177.404"
         opacity="0.83"
         fill="#2C87C5"
         width="20.768"
         height="20.769"
         id="rect4824" /><rect
         x="118.255"
         y="180.528"
         opacity="0.25"
         fill="#2C87C5"
         width="20.768"
         height="20.769"
         id="rect4826" /></g><g
       opacity="0.32"
       id="g4828"><rect
         x="972.84"
         y="14.254"
         opacity="0.83"
         fill="#2C87C5"
         width="26.592"
         height="26.593"
         id="rect4830" /><rect
         x="975.84"
         y="18.254"
         opacity="0.25"
         fill="#2C87C5"
         width="26.592"
         height="26.593"
         id="rect4832" /></g><g
       opacity="0.32"
       id="g4834"><rect
         x="225.847"
         y="155.104"
         opacity="0.83"
         fill="#2C87C5"
         width="20.768"
         height="20.769"
         id="rect4836" /><rect
         x="228.19"
         y="158.229"
         opacity="0.25"
         fill="#2C87C5"
         width="20.768"
         height="20.769"
         id="rect4838" /></g><g
       opacity="0.32"
       id="g4840"><rect
         x="90.911"
         y="251.242"
         opacity="0.83"
         fill="#2C87C5"
         width="20.768"
         height="20.769"
         id="rect4842" /><rect
         x="93.254"
         y="254.366"
         opacity="0.25"
         fill="#2C87C5"
         width="20.768"
         height="20.769"
         id="rect4844" /></g><g
       opacity="0.32"
       id="g4846"><rect
         x="47.75"
         y="295.542"
         opacity="0.83"
         fill="#2C87C5"
         width="20.768"
         height="20.769"
         id="rect4848" /><rect
         x="50.094"
         y="298.666"
         opacity="0.25"
         fill="#2C87C5"
         width="20.768"
         height="20.769"
         id="rect4850" /></g><g
       opacity="0.32"
       id="g4852"><rect
         x="47.239"
         y="361.065"
         opacity="0.83"
         fill="#2C87C5"
         width="17.778"
         height="17.779"
         id="rect4854" /><rect
         x="49.244"
         y="363.739"
         opacity="0.25"
         fill="#2C87C5"
         width="17.778"
         height="17.779"
         id="rect4856" /></g><g
       opacity="0.32"
       id="g4858"><rect
         x="161.128"
         y="314.066"
         opacity="0.83"
         fill="#2C87C5"
         width="14.767"
         height="14.767"
         id="rect4860" /><rect
         x="162.794"
         y="316.287"
         opacity="0.25"
         fill="#2C87C5"
         width="14.766"
         height="14.767"
         id="rect4862" /></g><g
       opacity="0.32"
       id="g4864"><rect
         x="2.617"
         y="360.698"
         opacity="0.83"
         fill="#2C87C5"
         width="14.767"
         height="14.767"
         id="rect4866" /><rect
         x="4.283"
         y="362.919"
         opacity="0.25"
         fill="#2C87C5"
         width="14.767"
         height="14.767"
         id="rect4868" /></g><g
       opacity="0.32"
       id="g4870"><rect
         x="24.057"
         y="451.262"
         opacity="0.83"
         fill="#2C87C5"
         width="14.767"
         height="14.766"
         id="rect4872" /><rect
         x="25.723"
         y="453.482"
         opacity="0.25"
         fill="#2C87C5"
         width="14.767"
         height="14.767"
         id="rect4874" /></g><g
       opacity="0.46"
       id="g4876"><rect
         x="181.637"
         y="700.337"
         opacity="0.83"
         fill="#2C87C5"
         width="8.961"
         height="8.961"
         id="rect4878" /><rect
         x="182.648"
         y="701.684"
         opacity="0.25"
         fill="#2C87C5"
         width="8.96"
         height="8.962"
         id="rect4880" /></g><g
       opacity="0.7"
       id="g4882"><rect
         x="117.718"
         y="681.525"
         opacity="0.83"
         fill="#2C87C5"
         width="11.47"
         height="11.471"
         id="rect4884" /><rect
         x="119.011"
         y="683.25"
         opacity="0.25"
         fill="#2C87C5"
         width="11.471"
         height="11.473"
         id="rect4886" /></g><g
       opacity="0.32"
       id="g4888"><rect
         x="49.262"
         y="587.116"
         opacity="0.83"
         fill="#2C87C5"
         width="14.767"
         height="14.766"
         id="rect4890" /><rect
         x="50.928"
         y="589.337"
         opacity="0.25"
         fill="#2C87C5"
         width="14.767"
         height="14.767"
         id="rect4892" /></g><g
       opacity="0.44"
       id="g4894"><rect
         x="26.015"
         y="654.272"
         opacity="0.83"
         fill="#2C87C5"
         width="14.767"
         height="14.766"
         id="rect4896" /><rect
         x="27.681"
         y="656.493"
         opacity="0.25"
         fill="#2C87C5"
         width="14.767"
         height="14.767"
         id="rect4898" /></g><g
       opacity="0.32"
       id="g4900"><rect
         x="55.88"
         y="528.04"
         opacity="0.83"
         fill="#2C87C5"
         width="9.216"
         height="9.216"
         id="rect4902" /><rect
         x="56.919"
         y="529.427"
         opacity="0.25"
         fill="#2C87C5"
         width="9.216"
         height="9.216"
         id="rect4904" /></g><g
       opacity="0.44"
       id="g4906"><rect
         x="80.73"
         y="565.678"
         opacity="0.83"
         fill="#2C87C5"
         width="9.216"
         height="9.216"
         id="rect4908" /><rect
         x="81.771"
         y="567.064"
         opacity="0.25"
         fill="#2C87C5"
         width="9.216"
         height="9.216"
         id="rect4910" /></g><g
       opacity="0.32"
       id="g4912"><rect
         x="138.265"
         y="585.921"
         opacity="0.83"
         fill="#2C87C5"
         width="9.216"
         height="9.217"
         id="rect4914" /><rect
         x="139.305"
         y="587.308"
         opacity="0.25"
         fill="#2C87C5"
         width="9.216"
         height="9.216"
         id="rect4916" /></g><g
       opacity="0.32"
       id="g4918"><rect
         x="994.41"
         y="181.832"
         opacity="0.83"
         fill="#2C87C5"
         width="16.822"
         height="16.822"
         id="rect4920" /><rect
         x="996.308"
         y="184.361"
         opacity="0.25"
         fill="#2C87C5"
         width="16.822"
         height="16.824"
         id="rect4922" /></g><g
       opacity="0.32"
       id="g4924"><rect
         x="137.541"
         y="227.12"
         opacity="0.83"
         fill="#2C87C5"
         width="11.471"
         height="11.471"
         id="rect4926" /><rect
         x="138.835"
         y="228.846"
         opacity="0.25"
         fill="#2C87C5"
         width="11.471"
         height="11.472"
         id="rect4928" /></g><g
       opacity="0.32"
       id="g4930"><rect
         x="-0.378"
         y="564.72"
         opacity="0.83"
         fill="#2C87C5"
         width="11.471"
         height="11.471"
         id="rect4932" /><rect
         x="0.916"
         y="566.446"
         opacity="0.25"
         fill="#2C87C5"
         width="11.471"
         height="11.471"
         id="rect4934" /></g><g
       opacity="0.15"
       id="g4936"><rect
         x="961.252"
         y="28.549"
         opacity="0.83"
         fill="#2C87C5"
         width="18.908"
         height="18.908"
         id="rect4938" /><rect
         x="963.386"
         y="31.393"
         opacity="0.25"
         fill="#2C87C5"
         width="18.907"
         height="18.908"
         id="rect4940" /></g><g
       opacity="0.15"
       id="g4942"><rect
         x="72.438"
         y="494.529"
         opacity="0.83"
         fill="#2C87C5"
         width="13.138"
         height="13.139"
         id="rect4944" /><rect
         x="73.92"
         y="496.505"
         opacity="0.25"
         fill="#2C87C5"
         width="13.138"
         height="13.139"
         id="rect4946" /></g><g
       opacity="0.15"
       id="g4948"><rect
         x="0.484"
         y="338.317"
         opacity="0.83"
         fill="#2C87C5"
         width="13.138"
         height="13.138"
         id="rect4950" /><rect
         x="1.967"
         y="340.293"
         opacity="0.25"
         fill="#2C87C5"
         width="13.138"
         height="13.139"
         id="rect4952" /></g><g
       opacity="0.15"
       id="g4954"><rect
         x="1.257"
         y="405.44"
         opacity="0.83"
         fill="#2C87C5"
         width="9.63"
         height="13.139"
         id="rect4956" /><rect
         x="2.343"
         y="407.416"
         opacity="0.25"
         fill="#2C87C5"
         width="9.63"
         height="13.14"
         id="rect4958" /></g><g
       opacity="0.15"
       id="g4960"><rect
         x="114.021"
         y="641.733"
         opacity="0.83"
         fill="#2C87C5"
         width="13.138"
         height="13.138"
         id="rect4962" /><rect
         x="115.502"
         y="643.709"
         opacity="0.25"
         fill="#2C87C5"
         width="13.138"
         height="13.139"
         id="rect4964" /></g><g
       opacity="0.15"
       id="g4966"><rect
         x="137.819"
         y="706.839"
         opacity="0.83"
         fill="#2C87C5"
         width="7.318"
         height="7.319"
         id="rect4968" /><rect
         x="138.645"
         y="707.939"
         opacity="0.25"
         fill="#2C87C5"
         width="7.319"
         height="7.319"
         id="rect4970" /></g><g
       opacity="0.15"
       id="g4972"><rect
         x="206.007"
         y="739.404"
         opacity="0.83"
         fill="#2C87C5"
         width="7.318"
         height="7.319"
         id="rect4974" /><rect
         x="206.833"
         y="740.505"
         opacity="0.25"
         fill="#2C87C5"
         width="7.319"
         height="7.319"
         id="rect4976" /></g><g
       opacity="0.15"
       id="g4978"><rect
         x="250.348"
         y="751.027"
         opacity="0.83"
         fill="#2C87C5"
         width="7.318"
         height="7.319"
         id="rect4980" /><rect
         x="251.173"
         y="752.128"
         opacity="0.25"
         fill="#2C87C5"
         width="7.319"
         height="7.319"
         id="rect4982" /></g><g
       opacity="0.15"
       id="g4984"><rect
         x="73.199"
         y="662.992"
         opacity="0.83"
         fill="#2C87C5"
         width="7.318"
         height="7.319"
         id="rect4986" /><rect
         x="74.024"
         y="664.093"
         opacity="0.25"
         fill="#2C87C5"
         width="7.319"
         height="7.319"
         id="rect4988" /></g><g
       opacity="0.15"
       id="g4990"><rect
         x="1.44"
         y="701.225"
         opacity="0.83"
         fill="#2C87C5"
         width="5.213"
         height="7.319"
         id="rect4992" /><rect
         x="2.028"
         y="702.325"
         opacity="0.25"
         fill="#2C87C5"
         width="5.214"
         height="7.319"
         id="rect4994" /></g><g
       opacity="0.15"
       id="g4996"><rect
         x="47.369"
         y="730.149"
         opacity="0.83"
         fill="#2C87C5"
         width="7.318"
         height="7.319"
         id="rect4998" /><rect
         x="48.194"
         y="731.25"
         opacity="0.25"
         fill="#2C87C5"
         width="7.319"
         height="7.319"
         id="rect5000" /></g><g
       opacity="0.15"
       id="g5002"><rect
         x="698.37"
         y="77.308"
         opacity="0.83"
         fill="#2C87C5"
         width="14.688"
         height="14.688"
         id="rect5004" /><rect
         x="700.026"
         y="79.517"
         opacity="0.25"
         fill="#2C87C5"
         width="14.688"
         height="14.689"
         id="rect5006" /></g><g
       opacity="0.32"
       id="g5008"><rect
         x="44.3"
         y="201.407"
         opacity="0.83"
         fill="#2C87C5"
         width="20.768"
         height="20.769"
         id="rect5010" /><rect
         x="46.643"
         y="204.531"
         opacity="0.25"
         fill="#2C87C5"
         width="20.768"
         height="20.769"
         id="rect5012" /></g><rect
       x="443.225"
       y="717.982"
       fill="none"
       width="199.488"
       height="31.408"
       id="rect5014" /><g
       opacity="0.32"
       id="g5018"><rect
         x="684.606"
         y="86.861"
         opacity="0.83"
         fill="#2C87C5"
         width="22.764"
         height="22.766"
         id="rect5020" /><rect
         x="687.174"
         y="90.285"
         opacity="0.25"
         fill="#2C87C5"
         width="22.764"
         height="22.766"
         id="rect5022" /></g></g><rect
     x="383.11499"
     y="686.55164"
     width="228.05705"
     height="60.3629"
     id="rect5929"
     style="opacity:0.46000001;fill:#2c87c5" /><line
     x1="497.14352"
     y1="686.25629"
     x2="497.14352"
     y2="755.59631"
     id="line5931" /><line
     x1="497.14352"
     y1="686.25629"
     x2="497.14352"
     y2="748.12897"
     id="line5933" /><line
     x1="497.14352"
     y1="686.25629"
     x2="497.14352"
     y2="748.12897"
     id="line5935" /><line
     x1="497.14352"
     y1="690.52338"
     x2="497.14352"
     y2="748.12897"
     id="line5937" /><line
     x1="497.14352"
     y1="689.4566"
     x2="497.14352"
     y2="749.19574"
     id="line5939" /><line
     x1="497.14352"
     y1="689.4566"
     x2="497.14352"
     y2="751.32928"
     id="line5941" /><rect
     x="397.39941"
     y="702.40833"
     width="199.48801"
     height="31.408001"
     id="rect5943"
     style="fill:none" /><text
     sodipodi:linespacing="125%"
     y="728.68506"
     x="399.15225"
     font-size="39.0486"
     id="text5945"
     style="font-size:48px;font-style:normal;font-variant:normal;font-weight:bold;font-stretch:normal;text-align:start;line-height:125%;writing-mode:lr-tb;text-anchor:start;fill:#d6d6d6;stroke:#d6d6d6;stroke-opacity:1;font-family:PT Sans;-inkscape-font-specification:PT Sans Bold">RHoK.org</text>
</svg>